<svg width="35" height="35" viewBox="0 0 35 35" fill="none" xmlns="http://www.w3.org/2000/svg">
<rect x="0.5" y="0.5" width="34" height="34" rx="9.5" stroke="#274181" stroke-opacity="0.2"/>
<g clip-path="url(#clip0_16_1250)">
<path d="M25.8878 18.2507L23.9466 13.8841C23.664 13.2492 23.2034 12.7097 22.6207 12.331C22.0379 11.9522 21.3579 11.7504 20.6629 11.75H17.5V11.0312C17.5 9.84226 16.5327 8.875 15.3438 8.875C14.1548 8.875 13.1875 9.84226 13.1875 11.0312V11.75H7.4375C6.64472 11.75 6 12.3947 6 13.1875V25.4062C6 26.199 6.64472 26.8438 7.4375 26.8438H8.97706C9.29852 28.0802 10.4144 29 11.75 29C13.0856 29 14.2015 28.0802 14.5229 26.8438H20.4771C20.7985 28.0802 21.9144 29 23.25 29C24.5856 29 25.7015 28.0802 26.0229 26.8438H27.5625C28.3553 26.8438 29 26.199 29 25.4062V21.8125C29 19.9942 27.6425 18.4868 25.8878 18.2507ZM22.6333 14.4681L24.3005 18.2188H21.0938C20.6975 18.2188 20.375 17.8962 20.375 17.5V13.1875H20.6629C21.5139 13.1875 22.2874 13.6901 22.6333 14.4681ZM14.625 11.0312C14.625 10.635 14.9475 10.3125 15.3438 10.3125C15.74 10.3125 16.0625 10.635 16.0625 11.0312V11.75H14.625V11.0312ZM18.9375 13.1875V17.5C18.9375 18.689 19.9048 19.6562 21.0938 19.6562H25.4062C26.3421 19.6562 27.1323 20.2589 27.4301 21.0938H7.4375V13.1875H18.9375ZM11.75 27.5625C10.9572 27.5625 10.3125 26.9178 10.3125 26.125C10.3125 25.3322 10.9572 24.6875 11.75 24.6875C12.5428 24.6875 13.1875 25.3322 13.1875 26.125C13.1875 26.9178 12.5428 27.5625 11.75 27.5625ZM23.25 27.5625C22.4572 27.5625 21.8125 26.9178 21.8125 26.125C21.8125 25.3322 22.4572 24.6875 23.25 24.6875C24.0428 24.6875 24.6875 25.3322 24.6875 26.125C24.6875 26.9178 24.0428 27.5625 23.25 27.5625ZM26.0229 25.4062C25.7015 24.1698 24.5856 23.25 23.25 23.25C21.9144 23.25 20.7985 24.1698 20.4771 25.4062H14.5229C14.2015 24.1698 13.0856 23.25 11.75 23.25C10.4144 23.25 9.29852 24.1698 8.97706 25.4062H7.4375V22.5312H27.5625V25.4062H26.0229ZM10.3125 17.5C10.3125 17.3094 10.3882 17.1266 10.523 16.9918C10.6578 16.857 10.8406 16.7812 11.0312 16.7812H12.4688V15.3438C12.4688 15.1531 12.5445 14.9703 12.6793 14.8355C12.8141 14.7007 12.9969 14.625 13.1875 14.625C13.3781 14.625 13.5609 14.7007 13.6957 14.8355C13.8305 14.9703 13.9062 15.1531 13.9062 15.3438V16.7812H15.3438C15.5344 16.7812 15.7172 16.857 15.852 16.9918C15.9868 17.1266 16.0625 17.3094 16.0625 17.5C16.0625 17.6906 15.9868 17.8734 15.852 18.0082C15.7172 18.143 15.5344 18.2188 15.3438 18.2188H13.9062V19.6562C13.9062 19.8469 13.8305 20.0297 13.6957 20.1645C13.5609 20.2993 13.3781 20.375 13.1875 20.375C12.9969 20.375 12.8141 20.2993 12.6793 20.1645C12.5445 20.0297 12.4688 19.8469 12.4688 19.6562V18.2188H11.0312C10.8406 18.2188 10.6578 18.143 10.523 18.0082C10.3882 17.8734 10.3125 17.6906 10.3125 17.5ZM17.7106 9.38316C17.6438 9.31645 17.5908 9.23724 17.5547 9.15005C17.5185 9.06285 17.4999 8.96939 17.4999 8.875C17.4999 8.78061 17.5185 8.68715 17.5547 8.59995C17.5908 8.51276 17.6438 8.43355 17.7106 8.36684L18.4293 7.64809C18.7102 7.36724 19.165 7.36724 19.4457 7.64809C19.7263 7.92895 19.7265 8.38373 19.4457 8.66441L18.7269 9.38316C18.5866 9.52349 18.4026 9.59375 18.2188 9.59375C18.0349 9.59375 17.8509 9.52349 17.7106 9.38316ZM14.625 7.4375V6.71875C14.625 6.52813 14.7007 6.34531 14.8355 6.21052C14.9703 6.07573 15.1531 6 15.3438 6C15.5344 6 15.7172 6.07573 15.852 6.21052C15.9868 6.34531 16.0625 6.52813 16.0625 6.71875V7.4375C16.0625 7.62812 15.9868 7.81094 15.852 7.94573C15.7172 8.08052 15.5344 8.15625 15.3438 8.15625C15.1531 8.15625 14.9703 8.08052 14.8355 7.94573C14.7007 7.81094 14.625 7.62812 14.625 7.4375ZM11.2418 8.66441C10.961 8.38355 10.961 7.92877 11.2418 7.64809C11.5227 7.36742 11.9775 7.36724 12.2582 7.64809L12.9769 8.36684C13.0437 8.43355 13.0967 8.51276 13.1328 8.59995C13.169 8.68715 13.1876 8.78061 13.1876 8.875C13.1876 8.96939 13.169 9.06285 13.1328 9.15005C13.0967 9.23724 13.0437 9.31645 12.9769 9.38316C12.8366 9.52349 12.6526 9.59375 12.4688 9.59375C12.2849 9.59375 12.1009 9.52349 11.9606 9.38316L11.2418 8.66441Z" fill="#274181"/>
</g>
<defs>
<clipPath id="clip0_16_1250">
<rect width="23" height="23" fill="white" transform="translate(6 6)"/>
</clipPath>
</defs>
</svg>
