<svg width="35" height="35" viewBox="0 0 35 35" fill="none" xmlns="http://www.w3.org/2000/svg">
<rect x="0.5" y="0.5" width="34" height="34" rx="9.5" stroke="#274181" stroke-opacity="0.2"/>
<path fill-rule="evenodd" clip-rule="evenodd" d="M9.00129 9.49805C9.00129 9.22298 9.22428 9 9.49934 9H25.4818C25.7568 9 25.9798 9.22298 25.9798 9.49805V18.3976C25.9798 18.6726 25.7568 18.8956 25.4818 18.8956H9.49934C9.22428 18.8956 9.00129 18.6726 9.00129 18.3976V9.49805ZM9.99739 9.9961V17.8995H24.9837V9.9961H9.99739ZM8.99963 23.7933C8.99963 22.804 9.80161 22.002 10.7909 22.002H12.2056C12.7139 22.002 13.1728 22.2138 13.4989 22.5539C13.8249 22.2138 14.2838 22.002 14.7922 22.002H16.2069C17.1962 22.002 17.9981 22.804 17.9982 23.7933V25.502C17.9982 25.777 17.7752 26 17.5001 26H13.4989M13.997 25.0039V23.7933C13.997 23.3541 14.353 22.9981 14.7922 22.9981H16.2069C16.646 22.9981 17.002 23.3541 17.0021 23.7933C17.0021 23.7933 17.0021 23.7933 17.0021 23.7933V25.0039H13.997ZM13.0008 25.0039V23.7933C13.0008 23.3542 12.6448 22.9981 12.2056 22.9981H10.7909C10.3517 22.9981 9.99573 23.3541 9.99573 23.7933V25.0039H13.0008ZM13.4989 26H9.49768C9.22262 26 8.99963 25.777 8.99963 25.502V23.7933" fill="#274181"/>
<path fill-rule="evenodd" clip-rule="evenodd" d="M11.0016 21.6205C11.0016 20.6312 11.8036 19.8292 12.7929 19.8292H14.2076C15.1969 19.8292 15.9988 20.6312 15.9988 21.6205V22.5001C15.9988 22.7751 15.7758 22.9981 15.5008 22.9981C15.2257 22.9981 15.0027 22.7751 15.0027 22.5001V21.6205C15.0027 21.1813 14.6467 20.8253 14.2076 20.8253H12.7929C12.3537 20.8253 11.9977 21.1813 11.9977 21.6205V22.5001C11.9977 22.7751 11.7747 22.9981 11.4996 22.9981C11.2246 22.9981 11.0016 22.7751 11.0016 22.5001V21.6205ZM17.0018 23.7933C17.0018 22.804 17.8038 22.002 18.7931 22.002H20.2078C20.7161 22.002 21.175 22.2138 21.5011 22.5539C21.8271 22.2138 22.286 22.002 22.7943 22.002H24.209C25.1983 22.002 26.0003 22.804 26.0003 23.7933V25.5019C26.0003 25.777 25.7773 26 25.5023 26H21.5011M21.9991 25.0039V23.7933C21.9991 23.3541 22.3552 22.9981 22.7943 22.9981H24.209C24.6482 22.9981 25.0042 23.3541 25.0042 23.7933C25.0042 23.7933 25.0042 23.7933 25.0042 23.7933V25.0039H21.9991ZM21.003 23.7933C21.003 23.3541 20.647 22.9981 20.2078 22.9981H18.7931C18.3539 22.9981 17.9979 23.3541 17.9979 23.7933V25.0039H21.003V23.7933C21.003 23.7933 21.003 23.7933 21.003 23.7933ZM21.5011 26H17.4999C17.2248 26 17.0018 25.777 17.0018 25.5019V23.7933" fill="#274181"/>
<path fill-rule="evenodd" clip-rule="evenodd" d="M15.9884 11.6775C16.1504 11.5908 16.3469 11.6004 16.4997 11.7024L19.0558 13.4084C19.1942 13.5008 19.2774 13.6563 19.2774 13.8227C19.2774 13.9891 19.1942 14.1446 19.0558 14.237L16.4997 15.943C16.3469 16.045 16.1504 16.0545 15.9884 15.9679C15.8263 15.8812 15.7252 15.7124 15.7252 15.5287V12.1167C15.7252 11.9329 15.8263 11.7641 15.9884 11.6775ZM16.7213 13.0479V14.5975L17.8822 13.8227L16.7213 13.0479ZM15.0026 21.6205C15.0026 20.6312 15.8045 19.8292 16.7938 19.8292H18.2085C18.7169 19.8292 19.1758 20.0409 19.5018 20.3811C19.8278 20.0409 20.2867 19.8292 20.7951 19.8292H22.2097C23.199 19.8292 24.001 20.6312 24.001 21.6205V22.5001C24.001 22.7752 23.778 22.9981 23.503 22.9981C23.2279 22.9981 23.0049 22.7752 23.0049 22.5001V21.6205C23.0049 21.1813 22.6489 20.8253 22.2097 20.8253H20.7951C20.3559 20.8253 19.9999 21.1813 19.9999 21.6205V22.5001C19.9999 22.758 19.8039 22.9701 19.5527 22.9956C19.536 22.9973 19.519 22.9981 19.5018 22.9981C19.5018 22.9981 19.5018 22.9981 19.5018 22.9981M19.5018 22.9981C19.5018 22.9981 19.5018 22.9981 19.5018 22.9981C19.2267 22.9981 19.0037 22.7752 19.0037 22.5001V21.6205C19.0037 21.1813 18.6477 20.8253 18.2085 20.8253H16.7938C16.3547 20.8253 15.9987 21.1813 15.9987 21.6205V22.5001C15.9987 22.7752 15.7757 22.9981 15.5006 22.9981C15.2255 22.9981 15.0026 22.7752 15.0026 22.5001V21.6205" fill="#274181"/>
</svg>
