<svg width="35" height="35" viewBox="0 0 35 35" fill="none" xmlns="http://www.w3.org/2000/svg">
<rect x="0.5" y="0.5" width="34" height="34" rx="9.5" stroke="#274181" stroke-opacity="0.2"/>
<path d="M9.20589 21.5234C7.39429 21.2725 6 19.7182 6 17.8382C6 15.9005 7.48125 14.3088 9.37323 14.1336C10.6947 10.9472 13.8356 8.70587 17.5 8.70587C21.1644 8.70587 24.3053 10.9472 25.6268 14.1336C27.5187 14.3088 29 15.9006 29 17.8382C29 19.7184 27.6053 21.2729 25.7941 21.5235C24.8189 24.7277 22.3238 26.2941 17.5 26.2941C12.6761 26.2941 10.181 24.7276 9.20589 21.5234ZM7.35296 17.8382C7.35296 18.8456 7.98213 19.7061 8.86894 20.0481C8.756 19.289 8.70587 18.4517 8.70587 17.5C8.70587 16.8595 8.77446 16.2279 8.90887 15.6134C8.00104 15.9447 7.35296 16.8158 7.35296 17.8382ZM27.647 17.8382C27.647 16.8158 26.999 15.9447 26.0911 15.6134C26.2264 16.2331 26.2945 16.8656 26.2941 17.5C26.2941 18.4516 26.244 19.289 26.1311 20.0481C27.0179 19.7061 27.647 18.8456 27.647 17.8382ZM18.853 13.103C18.853 12.2368 18.3233 11.2181 17.2205 10.064C13.2403 10.211 10.0588 13.4839 10.0588 17.5C10.0588 19.9784 10.4291 21.646 11.3548 22.8215C12.4469 24.2084 14.3883 24.9412 17.5 24.9412C20.6117 24.9412 22.5531 24.2084 23.6452 22.8215C24.5709 21.646 24.9412 19.9784 24.9412 17.5C24.9412 13.9505 22.4559 10.9814 19.1305 10.238C19.8417 11.2237 20.2059 12.1764 20.2059 13.103C20.2059 14.9905 19.1637 15.8088 17.5 15.8088C16.1361 15.8088 15.1324 14.7202 15.1324 13.4412C15.1324 12.6227 15.502 11.992 16.2045 11.6715C16.5445 11.5165 16.9457 11.6663 17.1008 12.0062C17.2558 12.3461 17.106 12.7474 16.7661 12.9024C16.5667 12.9934 16.4853 13.1322 16.4853 13.4412C16.4853 13.9965 16.909 14.4559 17.5 14.4559C18.4784 14.4559 18.853 14.1618 18.853 13.103ZM18.6958 21.74C18.96 21.4758 19.3883 21.4758 19.6525 21.74C19.9167 22.0041 19.9167 22.4325 19.6525 22.6966C18.4637 23.8854 16.5362 23.8854 15.3474 22.6966C15.0832 22.4324 15.0832 22.0041 15.3474 21.74C15.6116 21.4758 16.0399 21.4758 16.3041 21.74C16.9646 22.4004 18.0354 22.4004 18.6958 21.74ZM20.375 19.1912C19.908 19.1912 19.5294 18.8126 19.5294 18.3456C19.5294 17.8786 19.908 17.5 20.375 17.5C20.842 17.5 21.2206 17.8786 21.2206 18.3456C21.2206 18.8126 20.842 19.1912 20.375 19.1912ZM14.625 19.1912C14.158 19.1912 13.7794 18.8126 13.7794 18.3456C13.7794 17.8786 14.158 17.5 14.625 17.5C15.092 17.5 15.4706 17.8786 15.4706 18.3456C15.4706 18.8126 15.092 19.1912 14.625 19.1912Z" fill="#274181"/>
</svg>
