<svg width="35" height="35" viewBox="0 0 35 35" fill="none" xmlns="http://www.w3.org/2000/svg">
<rect x="0.5" y="0.5" width="34" height="34" rx="9.5" stroke="#274181" stroke-opacity="0.2"/>
<path d="M25.8521 8H9.14795C8.16577 8 7.3667 8.79907 7.3667 9.78125V21.6562C7.3667 22.6384 8.16577 23.4375 9.14795 23.4375H10.9688V26.4062C10.9688 26.5237 11.0036 26.6385 11.0689 26.7361C11.1341 26.8338 11.2268 26.9099 11.3353 26.9548C11.4438 26.9997 11.5632 27.0115 11.6784 26.9886C11.7936 26.9657 11.8994 26.9091 11.9824 26.8261L15.371 23.4375H25.8521C26.8343 23.4375 27.6334 22.6384 27.6334 21.6562V9.78125C27.6334 8.79907 26.8343 8 25.8521 8ZM26.4459 21.6562C26.4459 21.9836 26.1795 22.25 25.8521 22.25H15.125C14.9676 22.25 14.8166 22.3126 14.7052 22.4239L12.1563 24.9728V22.8438C12.1563 22.5158 11.8904 22.25 11.5625 22.25H9.14795C8.82056 22.25 8.5542 21.9836 8.5542 21.6562V9.78125C8.5542 9.45386 8.82056 9.1875 9.14795 9.1875H25.8521C26.1795 9.1875 26.4459 9.45386 26.4459 9.78125V21.6562Z" fill="#274181"/>
<path d="M17.5 10.375C14.5535 10.375 12.1562 12.7722 12.1562 15.7187C12.1562 18.6653 14.5535 21.0625 17.5 21.0625C20.4465 21.0625 22.8437 18.6653 22.8437 15.7187C22.8437 12.7722 20.4465 10.375 17.5 10.375ZM17.5 19.875C15.2082 19.875 13.3437 18.0105 13.3437 15.7187C13.3437 13.427 15.2082 11.5625 17.5 11.5625C19.7918 11.5625 21.6562 13.427 21.6562 15.7187C21.6562 18.0105 19.7918 19.875 17.5 19.875Z" fill="#274181"/>
<path d="M19.5992 17.0792C19.0392 16.5191 18.2936 16.2106 17.5 16.2106C16.7064 16.2106 15.9609 16.5191 15.4008 17.0792C15.169 17.3111 15.169 17.687 15.4008 17.9189C15.6326 18.1507 16.0086 18.1507 16.2405 17.9189C16.5763 17.5831 17.0236 17.3981 17.5 17.3981C17.9764 17.3981 18.4237 17.583 18.7595 17.9189C18.9915 18.1508 19.3673 18.1507 19.5992 17.9189C19.8311 17.687 19.8311 17.3111 19.5992 17.0792Z" fill="#274181"/>
<path d="M15.7188 15.125C16.0467 15.125 16.3125 14.8592 16.3125 14.5312C16.3125 14.2033 16.0467 13.9375 15.7188 13.9375C15.3908 13.9375 15.125 14.2033 15.125 14.5312C15.125 14.8592 15.3908 15.125 15.7188 15.125Z" fill="#274181"/>
<path d="M19.2812 15.125C19.6092 15.125 19.875 14.8592 19.875 14.5312C19.875 14.2033 19.6092 13.9375 19.2812 13.9375C18.9533 13.9375 18.6875 14.2033 18.6875 14.5312C18.6875 14.8592 18.9533 15.125 19.2812 15.125Z" fill="#274181"/>
</svg>
