<svg width="35" height="35" viewBox="0 0 35 35" fill="none" xmlns="http://www.w3.org/2000/svg">
<rect x="0.5" y="0.5" width="34" height="34" rx="9.5" stroke="#274181" stroke-opacity="0.2"/>
<path d="M17.5 25.4062H11.75C10.2387 25.4062 9.59375 24.7613 9.59375 23.25V11.75C9.59375 10.2387 10.2387 9.59375 11.75 9.59375H16.7812V11.75C16.7812 14.0673 18.0578 15.3438 20.375 15.3438H22.5313V17.5C22.5313 17.8968 22.8533 18.2188 23.25 18.2188C23.6468 18.2188 23.9688 17.8968 23.9688 17.5V14.625C23.9688 14.4343 23.8931 14.2513 23.7579 14.1171L18.0079 8.36708C17.8728 8.23196 17.6907 8.15625 17.5 8.15625H11.75C9.43275 8.15625 8.15625 9.43275 8.15625 11.75V23.25C8.15625 25.5673 9.43275 26.8438 11.75 26.8438H17.5C17.8968 26.8438 18.2188 26.5218 18.2188 26.125C18.2188 25.7283 17.8968 25.4062 17.5 25.4062ZM18.2188 11.75V10.6105L21.5144 13.9062H20.375C18.8637 13.9062 18.2188 13.2613 18.2188 11.75ZM19.4167 18.2188H12.7083C12.3116 18.2188 11.9896 17.8968 11.9896 17.5C11.9896 17.1033 12.3116 16.7812 12.7083 16.7812H19.4167C19.8134 16.7812 20.1354 17.1033 20.1354 17.5C20.1354 17.8968 19.8134 18.2188 19.4167 18.2188ZM12.7083 22.0521C12.3116 22.0521 11.9896 21.7301 11.9896 21.3333C11.9896 20.9366 12.3116 20.6146 12.7083 20.6146H16.5417C16.9384 20.6146 17.2604 20.9366 17.2604 21.3333C17.2604 21.7301 16.9384 22.0521 16.5417 22.0521H12.7083ZM27.5913 26.5754L26.1058 25.09C26.4681 24.5371 26.6837 23.8796 26.6837 23.1705C26.6837 21.2327 25.1072 19.6562 23.1705 19.6562C21.2327 19.6562 19.6562 21.2327 19.6562 23.1705C19.6562 25.1082 21.2327 26.6847 23.1705 26.6847C23.8796 26.6847 24.537 26.47 25.0899 26.1077L26.5754 27.5922C26.7153 27.7321 26.8993 27.803 27.0833 27.803C27.2673 27.803 27.4514 27.7331 27.5913 27.5922C27.8721 27.3105 27.8721 26.8553 27.5913 26.5754ZM21.0938 23.1705C21.0938 22.0252 22.0252 21.0938 23.1705 21.0938C24.3147 21.0938 25.2462 22.0252 25.2462 23.1705C25.2462 24.3157 24.3147 25.2472 23.1705 25.2472C22.0252 25.2462 21.0938 24.3147 21.0938 23.1705Z" fill="#274181"/>
</svg>
