<svg width="35" height="35" viewBox="0 0 35 35" fill="none" xmlns="http://www.w3.org/2000/svg">
<rect x="0.5" y="0.5" width="34" height="34" rx="9.5" stroke="#274181" stroke-opacity="0.2"/>
<path d="M24.5333 8.40154L18.2416 7.29183C17.0035 7.07429 15.9828 7.23815 15.2066 7.78153C14.4303 8.3249 13.9272 9.22762 13.7097 10.4658L13.6063 11.0542L10.4638 11.6072C7.97791 12.049 6.852 13.6609 7.29379 16.1458L8.77341 24.5342C8.98808 25.7723 9.48828 26.6751 10.2626 27.2184C10.8165 27.6066 11.495 27.8021 12.2895 27.8021C12.6076 27.8021 12.9459 27.7704 13.3014 27.7072L19.5986 26.5984C21.3879 26.2745 22.1938 25.4101 22.5523 24.5773C22.5983 24.5782 22.6511 24.5907 22.6961 24.5907C24.6128 24.5907 25.8529 23.4579 26.2305 21.3237L27.7092 12.9345C28.1452 10.4495 27.0192 8.8395 24.5333 8.40154ZM19.3457 25.1838L13.0513 26.2917C12.1993 26.4412 11.5401 26.3588 11.0888 26.0416C10.6383 25.7253 10.3365 25.136 10.1899 24.2859L8.70907 15.8938C8.40623 14.1841 9.00619 13.3255 10.7139 13.0217L13.3398 12.5597L12.2301 18.8551C11.7921 21.341 12.9191 22.951 15.4041 23.389L21.0104 24.377C20.744 24.6923 20.2619 25.0171 19.3457 25.1838ZM26.2927 12.6853L24.814 21.0745C24.5122 22.7842 23.6553 23.3851 21.9446 23.0832L15.6532 21.9735C13.9445 21.6726 13.3437 20.8148 13.6446 19.1052L15.1242 10.716C15.2737 9.86687 15.5795 9.27557 16.0309 8.95932C16.3385 8.74466 16.7411 8.63633 17.2356 8.63633C17.4675 8.63633 17.7203 8.6603 17.9925 8.70822L24.2841 9.81799C25.9928 10.1179 26.5936 10.9757 26.2927 12.6853ZM23.822 16.5752C23.7616 16.924 23.458 17.1694 23.1159 17.1694C23.0747 17.1694 23.0324 17.1665 22.9902 17.1588L16.6988 16.0491C16.3078 15.9801 16.0461 15.6073 16.116 15.2163C16.1841 14.8253 16.5609 14.5646 16.948 14.6336L23.2394 15.7433C23.6295 15.8114 23.891 16.1832 23.822 16.5752ZM24.493 13.4491C24.4326 13.7979 24.1288 14.0433 23.7867 14.0433C23.7455 14.0433 23.7032 14.0404 23.661 14.0327L17.3696 12.923C16.9786 12.854 16.7171 12.4812 16.7871 12.0902C16.8551 11.7001 17.2316 11.4376 17.6188 11.5075L23.9102 12.6173C24.3012 12.6863 24.562 13.0581 24.493 13.4491ZM20.9058 19.317C20.8454 19.6658 20.5416 19.9111 20.1995 19.9111C20.1583 19.9111 20.1162 19.9083 20.0741 19.9006L16.1411 19.2068C15.7501 19.1378 15.4885 18.765 15.5585 18.374C15.6265 17.9839 16.0012 17.7214 16.3902 17.7913L20.3232 18.4852C20.7142 18.5532 20.9748 18.926 20.9058 19.317Z" fill="#274181"/>
</svg>
