<svg width="35" height="35" viewBox="0 0 35 35" fill="none" xmlns="http://www.w3.org/2000/svg">
<rect x="0.5" y="0.5" width="34" height="34" rx="9.5" stroke="#274181" stroke-opacity="0.2"/>
<path fill-rule="evenodd" clip-rule="evenodd" d="M22.3125 11.1016C22.3125 11.4252 22.5748 11.6876 22.8984 11.6876H26.4141C26.7377 11.6876 27 11.4252 27 11.1016V9.34381C27 8.05095 25.9491 7.00006 24.6563 7.00006C24.3326 7.00006 24.0703 7.26239 24.0703 7.586C24.0703 7.9096 24.3326 8.17194 24.6563 8.17194C25.3019 8.17194 25.8281 8.69816 25.8281 9.34381V10.5157H22.8984C22.5748 10.5157 22.3125 10.778 22.3125 11.1016Z" fill="#274181"/>
<path fill-rule="evenodd" clip-rule="evenodd" d="M20.5547 26.4141C20.5547 26.7377 20.817 27.0001 21.1406 27.0001C22.4347 27.0001 23.4838 25.9513 23.4844 24.6574L23.4844 24.6571V9.34381C23.4844 8.69816 24.0106 8.17194 24.6562 8.17194C24.9799 8.17194 25.2422 7.90961 25.2422 7.586C25.2422 7.2624 24.9799 7.00006 24.6562 7.00006H12.8594C11.565 7.00006 10.5156 8.04939 10.5156 9.34381V22.8985C10.5156 23.2221 10.778 23.4844 11.1016 23.4844C11.4252 23.4844 11.6875 23.2221 11.6875 22.8985V9.34381C11.6875 8.6966 12.2122 8.17194 12.8594 8.17194H22.6268C22.427 8.51683 22.3125 8.91714 22.3125 9.34381V24.6568C22.3122 25.3038 21.7877 25.8282 21.1406 25.8282C20.817 25.8282 20.5547 26.0905 20.5547 26.4141Z" fill="#274181"/>
<path fill-rule="evenodd" clip-rule="evenodd" d="M9.34375 25.8282C8.69813 25.8282 8.17188 25.302 8.17188 24.6563V23.4844H18.7969V24.6563C18.7969 25.0832 18.911 25.4834 19.1104 25.8282H9.34375ZM21.1406 27.0001H9.34375C8.05094 27.0001 7 25.9492 7 24.6563V22.8985C7 22.5749 7.26233 22.3126 7.58594 22.3126H19.3828C19.7064 22.3126 19.9688 22.5749 19.9688 22.8985V24.6563C19.9688 25.3035 20.4934 25.8282 21.1406 25.8282C21.4642 25.8282 21.7266 26.0905 21.7266 26.4141C21.7266 26.7377 21.4642 27.0001 21.1406 27.0001Z" fill="#274181"/>
<path fill-rule="evenodd" clip-rule="evenodd" d="M14.0314 15.2267C14.0314 15.5503 14.2937 15.8127 14.6173 15.8127H19.3828C19.7064 15.8127 19.9688 15.5503 19.9688 15.2267C19.9688 14.9031 19.7064 14.6408 19.3828 14.6408H14.6173C14.2937 14.6408 14.0314 14.9031 14.0314 15.2267Z" fill="#274181"/>
<path fill-rule="evenodd" clip-rule="evenodd" d="M13.25 17.5707C13.25 17.8943 13.5123 18.1566 13.8359 18.1566H20.164C20.4876 18.1566 20.75 17.8943 20.75 17.5707C20.75 17.2471 20.4876 16.9847 20.164 16.9847H13.8359C13.5123 16.9847 13.25 17.2471 13.25 17.5707Z" fill="#274181"/>
<path fill-rule="evenodd" clip-rule="evenodd" d="M13.25 19.9147C13.25 20.2383 13.5123 20.5006 13.8359 20.5006H20.164C20.4876 20.5006 20.75 20.2383 20.75 19.9147C20.75 19.5911 20.4876 19.3287 20.164 19.3287H13.8359C13.5123 19.3287 13.25 19.5911 13.25 19.9147Z" fill="#274181"/>
<path fill-rule="evenodd" clip-rule="evenodd" d="M15.2421 15.8127C15.5657 15.8127 15.828 15.5503 15.828 15.2267V11.3799C16.19 11.2354 16.5852 11.1557 17 11.1557C17.4147 11.1557 17.8099 11.2354 18.1719 11.3799V15.2267C18.1719 15.5503 18.4342 15.8127 18.7578 15.8127C19.0815 15.8127 19.3438 15.5503 19.3438 15.2267V11.0068C19.3438 10.7901 19.2242 10.5911 19.0329 10.4894C18.4261 10.1668 17.7336 9.98384 17 9.98384C16.2662 9.98384 15.5738 10.1668 14.967 10.4895C14.7757 10.5912 14.6561 10.7902 14.6561 11.0068V15.2267C14.6561 15.5503 14.9185 15.8127 15.2421 15.8127Z" fill="#274181"/>
</svg>
