<svg width="35" height="35" viewBox="0 0 35 35" fill="none" xmlns="http://www.w3.org/2000/svg">
<rect x="0.5" y="0.5" width="34" height="34" rx="9.5" stroke="#274181" stroke-opacity="0.2"/>
<g clip-path="url(#clip0_16_1245)">
<path fill-rule="evenodd" clip-rule="evenodd" d="M20.2065 7.34766C16.0943 7.34766 12.7607 10.6813 12.7607 14.7935C12.7607 18.9057 16.0943 22.2393 20.2065 22.2393C24.3187 22.2393 27.6523 18.9057 27.6523 14.7935C27.6523 10.6813 24.3187 7.34766 20.2065 7.34766ZM11.4131 14.7935C11.4131 9.93696 15.3501 6 20.2065 6C25.063 6 29 9.93696 29 14.7935C29 19.6499 25.063 23.5869 20.2065 23.5869C15.3501 23.5869 11.4131 19.6499 11.4131 14.7935Z" fill="#274181"/>
<path fill-rule="evenodd" clip-rule="evenodd" d="M15.4729 14.4537C15.4729 11.8394 17.5922 9.72006 20.2066 9.72006C22.8209 9.72006 24.9402 11.8394 24.9402 14.4537V18.5135C24.9402 18.8857 24.6385 19.1873 24.2664 19.1873H18.8533C18.4811 19.1873 18.1795 18.8857 18.1795 18.5135V14.4537C18.1795 13.3341 19.087 12.4266 20.2066 12.4266C21.3261 12.4266 22.2337 13.3341 22.2337 14.4537V16.4865C22.2337 16.8586 21.932 17.1603 21.5598 17.1603C21.1877 17.1603 20.886 16.8586 20.886 16.4865V14.4537C20.886 14.0784 20.5818 13.7743 20.2066 13.7743C19.8313 13.7743 19.5271 14.0784 19.5271 14.4537V17.8397H23.5925V14.4537C23.5925 12.5837 22.0766 11.0677 20.2066 11.0677C18.3365 11.0677 16.8206 12.5837 16.8206 14.4537V19.193C16.8206 19.5652 16.5189 19.8668 16.1467 19.8668C15.7746 19.8668 15.4729 19.5652 15.4729 19.193V14.4537ZM14.0676 19.0185C14.3307 19.2817 14.3308 19.7083 14.0676 19.9715L12.6303 21.4088L13.5912 22.3697L15.0285 20.9324C15.2917 20.6693 15.7183 20.6693 15.9815 20.9324C16.2446 21.1956 16.2446 21.6222 15.9814 21.8853L14.5441 23.3227L15.4551 24.2337C15.7183 24.4969 15.7183 24.9235 15.4551 25.1866C15.192 25.4498 14.7654 25.4498 14.5022 25.1866L14.0696 24.7541L10.6156 28.2081C9.5597 29.264 7.84779 29.264 6.79191 28.2081C5.73603 27.1522 5.73603 25.4403 6.79191 24.3844L10.246 20.9304L9.81336 20.4978C9.55021 20.2346 9.55021 19.808 9.81336 19.5449C10.0765 19.2817 10.5031 19.2817 10.7663 19.5449L11.6773 20.4559L13.1147 19.0186C13.3778 18.7554 13.8044 18.7554 14.0676 19.0185ZM11.1989 21.8833L7.74485 25.3374C7.21526 25.8669 7.21526 26.7256 7.74485 27.2552C8.27444 27.7847 9.13305 27.7847 9.66264 27.2552L13.1167 23.8011C13.116 23.8005 13.1153 23.7998 13.1147 23.7991C13.1131 23.7976 13.1115 23.796 13.1099 23.7944L11.2056 21.89C11.204 21.8885 11.2024 21.8869 11.2009 21.8853C11.2002 21.8847 11.1995 21.884 11.1989 21.8833Z" fill="#274181"/>
</g>
<defs>
<clipPath id="clip0_16_1245">
<rect width="23" height="23" fill="white" transform="translate(6 6)"/>
</clipPath>
</defs>
</svg>
