<svg width="35" height="35" viewBox="0 0 35 35" fill="none" xmlns="http://www.w3.org/2000/svg">
<rect x="0.5" y="0.5" width="34" height="34" rx="9.5" stroke="#274181" stroke-opacity="0.2"/>
<path d="M16.0625 8.15625H12.2291C12.0385 8.15625 11.8557 8.23198 11.7209 8.36677C11.5861 8.50156 11.5104 8.68438 11.5104 8.875C11.5104 9.06562 11.5861 9.24844 11.7209 9.38323C11.8557 9.51802 12.0385 9.59375 12.2291 9.59375H13.6666L12.7658 10.1975C12.6374 10.2848 12.5408 10.4112 12.4903 10.558C12.4398 10.7047 12.4381 10.8639 12.4856 11.0117C12.533 11.1594 12.6271 11.2879 12.7536 11.3778C12.8801 11.4677 13.0323 11.5142 13.1875 11.5104C13.3311 11.5106 13.4715 11.4672 13.59 11.3858L15.3437 10.2167V12.0567C14.2771 12.2253 13.3054 12.7683 12.6029 13.5885C11.9004 14.4086 11.5131 15.4522 11.5104 16.5321V25.1571C11.5104 25.6028 11.6868 26.0303 12.001 26.3464C12.3152 26.6624 12.7418 26.8412 13.1875 26.8438H18.9375C19.3815 26.8412 19.8066 26.6637 20.1206 26.3498C20.4345 26.0358 20.612 25.6107 20.6145 25.1667V16.5417C20.6135 15.4624 20.2265 14.419 19.5235 13.6001C18.8205 12.7811 17.8479 12.2405 16.7812 12.0758V9.64167C18.2331 9.81924 19.5701 10.5211 20.5407 11.6153C21.5114 12.7095 22.0488 14.1206 22.052 15.5833V24.2083C22.052 24.399 22.1278 24.5818 22.2626 24.7166C22.3974 24.8514 22.5802 24.9271 22.7708 24.9271C22.9614 24.9271 23.1442 24.8514 23.279 24.7166C23.4138 24.5818 23.4895 24.399 23.4895 24.2083V15.5833C23.487 13.6143 22.7037 11.7267 21.3114 10.3344C19.9191 8.94209 18.0315 8.15879 16.0625 8.15625ZM12.9479 18.2188H16.0625C16.126 18.2188 16.1869 18.244 16.2319 18.2889C16.2768 18.3339 16.302 18.3948 16.302 18.4583V22.2917C16.302 22.3552 16.2768 22.4161 16.2319 22.4611C16.1869 22.506 16.126 22.5312 16.0625 22.5312H12.9479V18.2188ZM19.177 16.5417V25.1667C19.177 25.2302 19.1518 25.2911 19.1069 25.3361C19.0619 25.381 19.001 25.4062 18.9375 25.4062H13.1875C13.1239 25.4062 13.063 25.381 13.018 25.3361C12.9731 25.2911 12.9479 25.2302 12.9479 25.1667V23.9688H16.0625C16.5065 23.9662 16.9316 23.7887 17.2456 23.4748C17.5595 23.1608 17.737 22.7357 17.7395 22.2917V18.4583C17.737 18.0143 17.5595 17.5892 17.2456 17.2752C16.9316 16.9613 16.5065 16.7838 16.0625 16.7812H12.9479V16.5417C12.9479 15.7156 13.276 14.9234 13.8601 14.3393C14.4442 13.7552 15.2364 13.4271 16.0625 13.4271C16.8885 13.4271 17.6807 13.7552 18.2648 14.3393C18.8489 14.9234 19.177 15.7156 19.177 16.5417Z" fill="#274181"/>
</svg>
