<svg width="35" height="35" viewBox="0 0 35 35" fill="none" xmlns="http://www.w3.org/2000/svg">
<rect x="0.5" y="0.5" width="34" height="34" rx="9.5" stroke="#274181" stroke-opacity="0.2"/>
<path d="M23.7325 14.4862C23.2591 13.2996 23.1989 12.0514 23.5474 10.6792C23.5802 10.5503 23.5699 10.4141 23.518 10.2916C23.4662 10.1691 23.3758 10.0668 23.2604 10.0005C23.1451 9.93414 23.0113 9.90733 22.8793 9.92414C22.7473 9.94095 22.6244 10.0005 22.5294 10.0936C22.1181 10.4967 21.7721 10.8616 21.4716 11.2099C20.5966 12.2253 20.15 13.5409 20.226 14.8791C20.2384 15.126 20.2689 15.3715 20.3173 15.6139L20.713 17.6112C20.7223 17.6588 20.727 17.7072 20.727 17.7557C20.7262 17.9422 20.6551 18.1215 20.528 18.2579C20.4009 18.3944 20.227 18.4779 20.041 18.4919C19.8551 18.5059 19.6707 18.4493 19.5245 18.3334C19.3784 18.2175 19.2814 18.0508 19.2527 17.8665L18.9926 16.1775C18.9751 16.0636 18.9256 15.957 18.85 15.87C18.7744 15.783 18.6756 15.7192 18.5652 15.6861C18.4548 15.6529 18.3373 15.6517 18.2263 15.6826C18.1152 15.7135 18.0152 15.7753 17.9378 15.8607C17.1871 16.6916 16.7217 17.7409 16.6098 18.8551C16.4978 19.9693 16.7452 21.0901 17.3156 22.0538C17.886 23.0175 18.7497 23.7735 19.7804 24.2113C20.8111 24.6492 21.9548 24.7459 23.0444 24.4875C24.134 24.229 25.1124 23.6289 25.8366 22.7748C26.5609 21.9207 26.993 20.8573 27.0698 19.7401C27.1467 18.6229 26.8642 17.5104 26.2638 16.5652C25.6633 15.6199 24.7765 14.8915 23.7325 14.4862ZM21.8324 23.4136C21.185 23.4135 20.5471 23.2575 19.9727 22.9588C19.3984 22.6601 18.9044 22.2275 18.5325 21.6976C18.1606 21.1676 17.9217 20.556 17.8361 19.9143C17.7505 19.2725 17.8206 18.6196 18.0406 18.0108L18.0471 18.0519C18.0862 18.3105 18.1767 18.5586 18.3131 18.7817C18.4495 19.0048 18.6291 19.1984 18.8414 19.351C19.0538 19.5037 19.2945 19.6123 19.5494 19.6706C19.8043 19.7288 20.0683 19.7355 20.3259 19.6902C20.5834 19.6449 20.8293 19.5486 21.0491 19.4069C21.2688 19.2651 21.458 19.0809 21.6056 18.865C21.7531 18.6491 21.8559 18.4058 21.908 18.1496C21.9602 17.8933 21.9605 17.6292 21.9091 17.3728L21.5134 15.3756C21.4765 15.1909 21.4533 15.0038 21.444 14.8157C21.3949 13.9575 21.6262 13.1066 22.103 12.3914C22.1049 13.3584 22.3111 14.3141 22.7083 15.1958C22.7227 15.2322 22.7407 15.2671 22.7619 15.2999C22.8378 15.4181 22.9522 15.5065 23.0858 15.55C23.9973 15.8484 24.7725 16.4621 25.2723 17.2807C25.7721 18.0993 25.9637 19.0692 25.8128 20.0164C25.6618 20.9635 25.1781 21.8258 24.4486 22.4485C23.7191 23.0711 22.7915 23.4133 21.8324 23.4136Z" fill="#274181"/>
<path d="M17.373 24.4448C16.8158 24.8122 16.2448 25.2048 15.6368 25.6389C14.0879 24.5249 12.4779 23.4986 10.8143 22.5646C10.3078 22.2835 9.88529 21.8724 9.59042 21.3738C9.29555 20.8751 9.13896 20.3068 9.13677 19.7275V13.7555H17.7159C17.8777 13.7555 18.0328 13.6912 18.1472 13.5769C18.2615 13.4625 18.3258 13.3074 18.3258 13.1456C18.3258 12.9839 18.2615 12.8288 18.1472 12.7144C18.0328 12.6 17.8777 12.5358 17.7159 12.5358H9.13707V11.3584C11.6851 11.3081 13.867 10.6419 15.6368 9.37335C16.8623 10.2406 18.2608 10.8328 19.7364 11.1095C19.8152 11.1255 19.8964 11.1257 19.9753 11.1102C20.0543 11.0948 20.1293 11.0638 20.1963 11.0192C20.2632 10.9745 20.3206 10.9171 20.3652 10.8502C20.4098 10.7833 20.4408 10.7082 20.4563 10.6293C20.4718 10.5504 20.4715 10.4692 20.4555 10.3903C20.4395 10.3115 20.408 10.2367 20.3629 10.17C20.3179 10.1034 20.2601 10.0464 20.1929 10.0022C20.1257 9.95803 20.0504 9.92758 19.9713 9.91261C18.5287 9.64572 17.1717 9.03486 16.0154 8.13183C15.9076 8.04643 15.7741 7.99997 15.6365 8C15.499 8.00003 15.3655 8.04654 15.2578 8.13198C13.5139 9.51468 11.2484 10.1906 8.53865 10.1392C8.45751 10.1368 8.37674 10.151 8.30132 10.181C8.22591 10.2111 8.15745 10.2562 8.10016 10.3137C8.0423 10.3705 7.99633 10.4382 7.96494 10.5129C7.93355 10.5876 7.91737 10.6678 7.91736 10.7489V19.7275C7.91968 20.524 8.1343 21.3054 8.53909 21.9913C8.94389 22.6772 9.52423 23.2428 10.2203 23.6298C11.9695 24.6131 13.6585 25.6996 15.2785 26.8837C15.3825 26.9592 15.5077 26.9999 15.6362 27C15.7647 27.0002 15.89 26.9597 15.9942 26.8843C16.7234 26.3568 17.3941 25.8918 18.0443 25.4632C18.1794 25.3742 18.2736 25.2352 18.3061 25.0768C18.3387 24.9184 18.307 24.7535 18.218 24.6184C18.129 24.4834 17.99 24.3892 17.8316 24.3566C17.6731 24.3241 17.5081 24.3558 17.373 24.4448Z" fill="#274181"/>
</svg>
