<svg width="35" height="35" viewBox="0 0 35 35" fill="none" xmlns="http://www.w3.org/2000/svg">
<rect x="0.5" y="0.5" width="34" height="34" rx="9.5" stroke="#274181" stroke-opacity="0.2"/>
<path d="M26.125 25.4062H25.4062V11.75C25.4062 9.43275 24.1297 8.15625 21.8125 8.15625H13.1875C10.8702 8.15625 9.59375 9.43275 9.59375 11.75V25.4062H8.875C8.47825 25.4062 8.15625 25.7283 8.15625 26.125C8.15625 26.5217 8.47825 26.8438 8.875 26.8438H26.125C26.5217 26.8438 26.8438 26.5217 26.8438 26.125C26.8438 25.7283 26.5217 25.4062 26.125 25.4062ZM18.9375 25.4062H16.0625V22.7708C16.0625 22.2064 16.2168 22.0521 16.7812 22.0521H18.2188C18.7832 22.0521 18.9375 22.2064 18.9375 22.7708V25.4062ZM20.375 25.4062V22.7708C20.375 21.4205 19.569 20.6146 18.2188 20.6146H16.7812C15.431 20.6146 14.625 21.4205 14.625 22.7708V25.4062H11.0312V11.75C11.0312 10.2387 11.6762 9.59375 13.1875 9.59375H21.8125C23.3238 9.59375 23.9688 10.2387 23.9688 11.75V25.4062H20.375ZM21.0938 18.4583C21.0938 18.8551 20.7717 19.1771 20.375 19.1771H19.4167C19.0199 19.1771 18.6979 18.8551 18.6979 18.4583C18.6979 18.0616 19.0199 17.7396 19.4167 17.7396H20.375C20.7717 17.7396 21.0938 18.0616 21.0938 18.4583ZM16.3021 18.4583C16.3021 18.8551 15.9801 19.1771 15.5833 19.1771H14.625C14.2283 19.1771 13.9062 18.8551 13.9062 18.4583C13.9062 18.0616 14.2283 17.7396 14.625 17.7396H15.5833C15.9801 17.7396 16.3021 18.0616 16.3021 18.4583ZM21.0938 15.5833C21.0938 15.9801 20.7717 16.3021 20.375 16.3021H19.4167C19.0199 16.3021 18.6979 15.9801 18.6979 15.5833C18.6979 15.1866 19.0199 14.8646 19.4167 14.8646H20.375C20.7717 14.8646 21.0938 15.1866 21.0938 15.5833ZM16.3021 15.5833C16.3021 15.9801 15.9801 16.3021 15.5833 16.3021H14.625C14.2283 16.3021 13.9062 15.9801 13.9062 15.5833C13.9062 15.1866 14.2283 14.8646 14.625 14.8646H15.5833C15.9801 14.8646 16.3021 15.1866 16.3021 15.5833ZM21.0938 12.7083C21.0938 13.1051 20.7717 13.4271 20.375 13.4271H19.4167C19.0199 13.4271 18.6979 13.1051 18.6979 12.7083C18.6979 12.3116 19.0199 11.9896 19.4167 11.9896H20.375C20.7717 11.9896 21.0938 12.3116 21.0938 12.7083ZM16.3021 12.7083C16.3021 13.1051 15.9801 13.4271 15.5833 13.4271H14.625C14.2283 13.4271 13.9062 13.1051 13.9062 12.7083C13.9062 12.3116 14.2283 11.9896 14.625 11.9896H15.5833C15.9801 11.9896 16.3021 12.3116 16.3021 12.7083Z" fill="#274181"/>
</svg>
