<svg width="35" height="35" viewBox="0 0 35 35" fill="none" xmlns="http://www.w3.org/2000/svg">
<rect x="0.5" y="0.5" width="34" height="34" rx="9.5" stroke="#274181" stroke-opacity="0.2"/>
<g clip-path="url(#clip0_16_1264)">
<path d="M27.8083 17.1787L25.8792 16.2142L22.1 11.175C21.8985 10.9079 21.638 10.691 21.3387 10.5413C21.0394 10.3917 20.7096 10.3134 20.375 10.3125H8.15625C7.58438 10.3125 7.03593 10.5397 6.63155 10.9441C6.22718 11.3484 6 11.8969 6 12.4688V20.375C6 20.9469 6.22718 21.4953 6.63155 21.8997C7.03593 22.3041 7.58438 22.5312 8.15625 22.5312H8.25831C8.4152 23.1476 8.77298 23.6942 9.27514 24.0845C9.7773 24.4749 10.3952 24.6868 11.0312 24.6868C11.6673 24.6868 12.2852 24.4749 12.7874 24.0845C13.2895 23.6942 13.6473 23.1476 13.8042 22.5312H21.1958C21.3527 23.1476 21.7105 23.6942 22.2126 24.0845C22.7148 24.4749 23.3327 24.6868 23.9688 24.6868C24.6048 24.6868 25.2227 24.4749 25.7249 24.0845C26.227 23.6942 26.5848 23.1476 26.7417 22.5312H27.5625C27.9437 22.5312 28.3094 22.3798 28.579 22.1102C28.8485 21.8406 29 21.475 29 21.0938V19.1071C29.0014 18.7064 28.8905 18.3134 28.6799 17.9725C28.4692 17.6317 28.1673 17.3567 27.8083 17.1787ZM23.9688 16.0625H21V13.9062H22.3516L23.9688 16.0625ZM11.0312 23.25C10.7469 23.25 10.469 23.1657 10.2326 23.0077C9.99622 22.8498 9.81197 22.6253 9.70317 22.3626C9.59437 22.0999 9.5659 21.8109 9.62137 21.5321C9.67684 21.2532 9.81375 20.9971 10.0148 20.796C10.2158 20.595 10.472 20.4581 10.7508 20.4026C11.0297 20.3472 11.3187 20.3756 11.5814 20.4844C11.844 20.5932 12.0685 20.7775 12.2265 21.0139C12.3844 21.2503 12.4688 21.5282 12.4688 21.8125C12.4688 22.1937 12.3173 22.5594 12.0477 22.829C11.7781 23.0985 11.4125 23.25 11.0312 23.25ZM23.9688 23.25C23.6844 23.25 23.4065 23.1657 23.1701 23.0077C22.9337 22.8498 22.7495 22.6253 22.6407 22.3626C22.5319 22.0999 22.5034 21.8109 22.5589 21.5321C22.6143 21.2532 22.7512 20.9971 22.9523 20.796C23.1533 20.595 23.4095 20.4581 23.6883 20.4026C23.9672 20.3472 24.2562 20.3756 24.5189 20.4844C24.7815 20.5932 25.006 20.7775 25.164 21.0139C25.3219 21.2503 25.4062 21.5282 25.4062 21.8125C25.4062 22.1937 25.2548 22.5594 24.9852 22.829C24.7156 23.0985 24.35 23.25 23.9688 23.25ZM27.5625 21.0938H26.7417C26.5848 20.4774 26.227 19.9308 25.7249 19.5405C25.2227 19.1501 24.6048 18.9382 23.9688 18.9382C23.3327 18.9382 22.7148 19.1501 22.2126 19.5405C21.7105 19.9308 21.3527 20.4774 21.1958 21.0938H13.8042C13.6473 20.4774 13.2895 19.9308 12.7874 19.5405C12.2852 19.1501 11.6673 18.9382 11.0312 18.9382C10.3952 18.9382 9.7773 19.1501 9.27514 19.5405C8.77298 19.9308 8.4152 20.4774 8.25831 21.0938H8.15625C7.96563 21.0938 7.78281 21.018 7.64802 20.8832C7.51323 20.7484 7.4375 20.5656 7.4375 20.375V12.4688C7.4375 12.2781 7.51323 12.0953 7.64802 11.9605C7.78281 11.8257 7.96563 11.75 8.15625 11.75H20.375C20.8968 11.75 21.0463 12.2265 21.2734 12.4688H21C20.6188 12.4688 20.2531 12.6202 19.9835 12.8898C19.714 13.1594 19.5625 13.525 19.5625 13.9062V16.0625C19.5625 16.4437 19.714 16.8094 19.9835 17.079C20.2531 17.3485 20.6188 17.5 21 17.5H25.2366L27.165 18.4646C27.2847 18.5238 27.3854 18.6154 27.4557 18.729C27.5259 18.8426 27.5629 18.9736 27.5625 19.1071V21.0938Z" fill="#274181"/>
</g>
<defs>
<clipPath id="clip0_16_1264">
<rect width="23" height="23" fill="white" transform="translate(6 6)"/>
</clipPath>
</defs>
</svg>
