<svg width="35" height="35" viewBox="0 0 35 35" fill="none" xmlns="http://www.w3.org/2000/svg">
<rect x="0.5" y="0.5" width="34" height="34" rx="9.5" stroke="#274181" stroke-opacity="0.2"/>
<path d="M9.6485 7.53821C8.47532 7.53821 7.52795 8.51614 7.52795 9.6978V19.6706C7.52795 20.8523 8.47532 21.8319 9.6485 21.8319H15.7215V26.3769H14.0814C14.0106 26.377 13.9406 26.3911 13.8752 26.4183C13.8099 26.4455 13.7505 26.4853 13.7005 26.5354C13.6505 26.5855 13.6109 26.645 13.5839 26.7105C13.557 26.7759 13.5431 26.846 13.5432 26.9168C13.5427 26.9879 13.5562 27.0584 13.583 27.1242C13.6097 27.19 13.6493 27.2499 13.6993 27.3004C13.7493 27.3509 13.8088 27.391 13.8744 27.4184C13.94 27.4458 14.0104 27.46 14.0814 27.4601H20.932C21.0032 27.4602 21.0738 27.4462 21.1396 27.4189C21.2053 27.3916 21.2651 27.3515 21.3153 27.301C21.3655 27.2505 21.4051 27.1905 21.432 27.1246C21.4589 27.0587 21.4725 26.988 21.4719 26.9168C21.472 26.8459 21.4581 26.7756 21.4311 26.7101C21.404 26.6445 21.3642 26.585 21.314 26.5348C21.2639 26.4846 21.2043 26.4449 21.1388 26.4178C21.0732 26.3907 21.003 26.3768 20.932 26.3769H19.292V21.8319H25.3667C26.5381 21.8319 27.4855 20.8523 27.4855 19.6706V9.6978C27.4855 8.51614 26.5381 7.53821 25.3667 7.53821H9.6485ZM9.6485 8.61631H11.2512V10.3226H10.4787C10.4079 10.3227 10.3379 10.3368 10.2725 10.3639C10.2071 10.3911 10.1478 10.4309 10.0978 10.4811C10.0478 10.5312 10.0082 10.5907 9.98123 10.6561C9.95424 10.7216 9.94041 10.7917 9.94052 10.8625C9.94074 11.0052 9.99752 11.1419 10.0984 11.2428C10.1993 11.3437 10.336 11.4005 10.4787 11.4007H13.1018C13.1726 11.4008 13.2427 11.387 13.3082 11.36C13.3736 11.333 13.4331 11.2934 13.4832 11.2434C13.5334 11.1934 13.5732 11.1341 13.6003 11.0687C13.6275 11.0033 13.6416 10.9333 13.6417 10.8625C13.6418 10.7916 13.6279 10.7213 13.6008 10.6557C13.5737 10.5902 13.534 10.5306 13.4838 10.4805C13.4337 10.4303 13.3741 10.3906 13.3085 10.3635C13.243 10.3364 13.1727 10.3225 13.1018 10.3226H12.3293V8.61631H16.966V10.3226H16.1935C16.1226 10.3225 16.0523 10.3364 15.9867 10.3635C15.9212 10.3906 15.8616 10.4303 15.8115 10.4805C15.7613 10.5306 15.7216 10.5902 15.6945 10.6557C15.6674 10.7213 15.6535 10.7916 15.6536 10.8625C15.6537 10.9333 15.6678 11.0033 15.6949 11.0687C15.7221 11.1341 15.7619 11.1934 15.8121 11.2434C15.8622 11.2934 15.9217 11.333 15.9871 11.36C16.0526 11.387 16.1227 11.4008 16.1935 11.4007H18.8166C18.9592 11.4005 19.096 11.3437 19.1969 11.2428C19.2978 11.1419 19.3546 11.0052 19.3548 10.8625C19.3549 10.7917 19.3411 10.7216 19.3141 10.6561C19.2871 10.5907 19.2475 10.5312 19.1975 10.4811C19.1475 10.4309 19.0882 10.3911 19.0228 10.3639C18.9574 10.3368 18.8874 10.3227 18.8166 10.3226H18.0441V8.61631H22.6841V10.3226H21.9117C21.8407 10.3225 21.7705 10.3364 21.7049 10.3635C21.6394 10.3906 21.5798 10.4303 21.5296 10.4805C21.4795 10.5306 21.4397 10.5902 21.4126 10.6557C21.3855 10.7213 21.3716 10.7916 21.3718 10.8625C21.3719 10.9333 21.3859 11.0033 21.4131 11.0687C21.4403 11.1341 21.4801 11.1934 21.5302 11.2434C21.5804 11.2934 21.6399 11.333 21.7053 11.36C21.7707 11.387 21.8409 11.4008 21.9117 11.4007H24.5347C24.6768 11.3996 24.8127 11.3424 24.9129 11.2416C25.013 11.1408 25.0693 11.0046 25.0695 10.8625C25.0698 10.7201 25.0137 10.5834 24.9135 10.4823C24.8133 10.3811 24.6771 10.3237 24.5347 10.3226H23.7572V8.61631H25.3667C25.9456 8.61631 26.4074 9.0832 26.4074 9.6978V19.6706C26.4074 20.2869 25.9456 20.7538 25.3667 20.7538H9.6485C9.06785 20.7538 8.60605 20.2869 8.60605 19.6706V9.6978C8.60605 9.0832 9.06785 8.61631 9.6485 8.61631ZM16.7996 21.8319H18.2139V26.3769H16.7996V21.8319Z" fill="#274181"/>
<path d="M10.3547 13.4397C10.2838 13.4396 10.2135 13.4535 10.148 13.4806C10.0824 13.5077 10.0229 13.5475 9.9727 13.5976C9.92255 13.6478 9.88278 13.7073 9.85569 13.7729C9.8286 13.8384 9.81471 13.9087 9.81482 13.9796V18.1698C9.81493 18.2406 9.82898 18.3106 9.85618 18.376C9.88337 18.4414 9.92317 18.5007 9.9733 18.5507C10.0234 18.6007 10.0829 18.6403 10.1484 18.6673C10.2138 18.6943 10.2839 18.7081 10.3547 18.708H16.7571C16.8998 18.7078 17.0365 18.651 17.1374 18.5501C17.2383 18.4492 17.2951 18.3124 17.2953 18.1698V13.9796C17.2954 13.9088 17.2816 13.8387 17.2546 13.7733C17.2276 13.7078 17.188 13.6483 17.138 13.5982C17.088 13.5481 17.0287 13.5083 16.9633 13.4811C16.898 13.4539 16.8279 13.4398 16.7571 13.4397H10.3547ZM10.8929 14.5195H16.2172V17.6299H10.8929V14.5195Z" fill="#274181"/>
<path d="M18.9455 14.3362C18.8748 14.3363 18.8047 14.3503 18.7393 14.3775C18.674 14.4047 18.6146 14.4445 18.5646 14.4947C18.5147 14.5448 18.475 14.6043 18.4481 14.6697C18.4211 14.7352 18.4072 14.8053 18.4073 14.8761C18.4076 15.0188 18.4643 15.1555 18.5652 15.2564C18.6661 15.3573 18.8029 15.4141 18.9455 15.4143H24.6382C24.7809 15.4141 24.9177 15.3573 25.0186 15.2564C25.1194 15.1555 25.1762 15.0188 25.1764 14.8761C25.1766 14.8053 25.1627 14.7352 25.1357 14.6697C25.1088 14.6043 25.0691 14.5448 25.0192 14.4947C24.9692 14.4445 24.9098 14.4047 24.8445 14.3775C24.7791 14.3503 24.709 14.3363 24.6382 14.3362H18.9455ZM18.9455 16.7335C18.8748 16.7336 18.8047 16.7476 18.7393 16.7748C18.674 16.802 18.6146 16.8418 18.5646 16.8919C18.5147 16.9421 18.475 17.0016 18.4481 17.067C18.4211 17.1325 18.4072 17.2026 18.4073 17.2734C18.4076 17.416 18.4643 17.5528 18.5652 17.6537C18.6661 17.7546 18.8029 17.8113 18.9455 17.8116H24.6382C24.7809 17.8113 24.9177 17.7546 25.0186 17.6537C25.1194 17.5528 25.1762 17.416 25.1764 17.2734C25.1766 17.2026 25.1627 17.1325 25.1357 17.067C25.1088 17.0016 25.0691 16.9421 25.0192 16.8919C24.9692 16.8418 24.9098 16.802 24.8445 16.7748C24.7791 16.7476 24.709 16.7336 24.6382 16.7335H18.9455Z" fill="#274181"/>
</svg>
