<svg width="35" height="35" viewBox="0 0 35 35" fill="none" xmlns="http://www.w3.org/2000/svg">
<rect x="0.5" y="0.5" width="34" height="34" rx="9.5" stroke="#274181" stroke-opacity="0.2"/>
<path d="M20.6921 12.2572L19.7081 11.2686C19.4726 11.0321 19.4357 10.6612 19.6199 10.3826L19.8865 9.97919C20.0161 9.78304 20.2351 9.66477 20.4698 9.66477H22.9309C23.1655 9.66477 23.3842 9.78263 23.5142 9.97919L23.7808 10.3826C23.965 10.6616 23.9281 11.0321 23.6926 11.2686L22.702 12.2638C22.4288 12.5383 22.4288 12.9833 22.702 13.2578C22.9752 13.5326 23.4186 13.533 23.6922 13.2582L25.4934 11.4491C25.7292 11.2126 25.7657 10.8417 25.5816 10.5627L24.2653 8.57191C24.1356 8.37576 23.9166 8.2579 23.6824 8.2579H19.7204C19.4861 8.2579 19.2671 8.37576 19.1375 8.57191L17.8212 10.5627C17.6366 10.8417 17.6735 11.2122 17.9094 11.4491L19.704 13.2516C19.9771 13.526 20.4206 13.526 20.6937 13.2516C20.9669 12.9767 20.9669 12.5317 20.6937 12.2572H20.6921ZM13.9999 26.5439C14.7809 26.5476 15.5565 26.4157 16.2924 26.1545C17.8179 25.627 19.1137 24.5832 19.957 23.2014C20.9755 21.549 21.2577 19.5565 20.761 17.7021C20.6527 17.2975 20.2159 17.0799 19.8282 17.234H19.8274C19.4952 17.3663 19.318 17.7277 19.4103 18.0742C19.8044 19.5553 19.578 21.1451 18.765 22.4642C18.0894 23.5707 17.0513 24.406 15.8289 24.8271C15.2415 25.036 14.6225 25.1411 13.9994 25.1378C10.9115 25.1378 8.39912 22.6138 8.39912 19.5116C8.39912 16.4094 10.9115 13.8854 13.9994 13.8854C14.7616 13.8854 15.5122 14.0407 16.2013 14.3387C16.5262 14.4792 16.9048 14.349 17.0804 14.0403C17.2867 13.6781 17.137 13.2128 16.7555 13.0476C15.8875 12.6722 14.9499 12.4777 13.999 12.4785C10.1396 12.4781 6.99915 15.633 6.99915 19.5112C6.99915 23.3893 10.1396 26.5443 13.9999 26.5443V26.5439Z" fill="#274181"/>
<path d="M21.7003 13.8846C19.7256 13.8809 17.8646 14.8105 16.6755 16.3938C15.851 17.4957 15.4035 18.8358 15.3998 20.2142C15.3998 20.949 15.522 21.6598 15.764 22.3365C15.9068 22.7354 16.3654 22.9184 16.7411 22.7259C17.0541 22.5656 17.2013 22.1964 17.0828 21.8642C16.8941 21.3364 16.7977 20.7784 16.7993 20.2142C16.7993 19.1346 17.1423 18.1064 17.7912 17.2423C18.7166 16.0114 20.1641 15.289 21.6995 15.2914C24.4018 15.2914 26.6 17.4998 26.6 20.2146C26.6 22.9295 24.4018 25.1379 21.6995 25.1379C21.3619 25.1395 21.0255 25.1049 20.6961 25.0344C20.3668 24.964 20.0132 25.156 19.8955 25.4857C19.7519 25.8891 19.998 26.3234 20.4152 26.412C20.8323 26.5006 21.2671 26.5464 21.6995 26.5443C25.173 26.5443 28 23.7042 28 20.2146C28 16.7251 25.173 13.885 21.6995 13.885L21.7003 13.8846Z" fill="#274181"/>
</svg>
