<svg width="35" height="35" viewBox="0 0 35 35" fill="none" xmlns="http://www.w3.org/2000/svg">
<rect x="0.5" y="0.5" width="34" height="34" rx="9.5" stroke="#274181" stroke-opacity="0.2"/>
<path fill-rule="evenodd" clip-rule="evenodd" d="M9.79111 8.93759C9.91748 8.81123 10.0889 8.74023 10.2676 8.74023H21.0488C21.421 8.74023 21.7227 9.04192 21.7227 9.41406V11.4355H26.5293C26.8193 11.4355 27.0768 11.6211 27.1685 11.8963L28.9654 17.2869C28.9883 17.3556 29 17.4276 29 17.5V23.3398C29 23.712 28.6983 24.0137 28.3262 24.0137H25.5673C25.1952 24.0137 24.8935 23.712 24.8935 23.3398C24.8935 22.9677 25.1952 22.666 25.5673 22.666H27.6523V17.6093L26.0436 12.7832H21.7227V22.666H22.1006C22.4728 22.666 22.7745 22.9677 22.7745 23.3398C22.7745 23.712 22.4728 24.0137 22.1006 24.0137H12.8994C12.5272 24.0137 12.2255 23.712 12.2255 23.3398C12.2255 22.9677 12.5272 22.666 12.8994 22.666H20.375V10.0879H10.5467L7.34766 13.2869V22.666H9.43266C9.80481 22.666 10.1065 22.9677 10.1065 23.3398C10.1065 23.712 9.80481 24.0137 9.43266 24.0137H6.67383C6.30168 24.0137 6 23.712 6 23.3398V13.0078C6 12.8291 6.07099 12.6577 6.19736 12.5313L9.79111 8.93759Z" fill="#274181"/>
<path fill-rule="evenodd" clip-rule="evenodd" d="M23.834 11.4355C24.2061 11.4355 24.5078 11.7372 24.5078 12.1094V15.7031C24.5078 16.3233 25.0106 16.8262 25.6309 16.8262H28.3262C28.6983 16.8262 29 17.1279 29 17.5C29 17.8721 28.6983 18.1738 28.3262 18.1738H25.6309C24.2663 18.1738 23.1602 17.0676 23.1602 15.7031V12.1094C23.1602 11.7372 23.4618 11.4355 23.834 11.4355Z" fill="#274181"/>
<path fill-rule="evenodd" clip-rule="evenodd" d="M23.834 22.666C23.2137 22.666 22.7109 23.1688 22.7109 23.7891C22.7109 24.4093 23.2137 24.9121 23.834 24.9121C24.4542 24.9121 24.957 24.4093 24.957 23.7891C24.957 23.1688 24.4542 22.666 23.834 22.666ZM21.3633 23.7891C21.3633 22.4245 22.4695 21.3184 23.834 21.3184C25.1985 21.3184 26.3047 22.4245 26.3047 23.7891C26.3047 25.1536 25.1985 26.2598 23.834 26.2598C22.4695 26.2598 21.3633 25.1536 21.3633 23.7891Z" fill="#274181"/>
<path fill-rule="evenodd" clip-rule="evenodd" d="M13.057 12.1543C13.6621 11.1061 15.175 11.1061 15.7802 12.1543L16.5583 13.5019C16.7444 13.8242 16.6339 14.2363 16.3117 14.4224C15.9894 14.6085 15.5773 14.4981 15.3912 14.1758L14.6131 12.8281C14.5267 12.6784 14.3105 12.6784 14.2241 12.8281L13.446 14.1758C13.2599 14.4981 12.8478 14.6085 12.5255 14.4224C12.2032 14.2363 12.0928 13.8242 12.2789 13.5019L13.057 12.1543ZM11.6432 15.9506C11.9655 16.1367 12.076 16.5488 11.8899 16.8711L11.1118 18.2188C11.0253 18.3685 11.1334 18.5557 11.3063 18.5557H12.8625C13.2346 18.5557 13.5363 18.8574 13.5363 19.2295C13.5363 19.6016 13.2346 19.9033 12.8625 19.9033H11.3063C10.096 19.9033 9.33951 18.5931 9.94469 17.5449L10.7228 16.1973C10.9089 15.875 11.321 15.7646 11.6432 15.9506ZM17.194 15.9506C17.5162 15.7646 17.9284 15.875 18.1144 16.1973L18.8925 17.5449C19.4977 18.5931 18.7412 19.9033 17.5309 19.9033H15.9747C15.6026 19.9033 15.3009 19.6016 15.3009 19.2295C15.3009 18.8574 15.6026 18.5557 15.9747 18.5557H17.5309C17.7038 18.5557 17.8119 18.3685 17.7254 18.2188L16.9473 16.8711C16.7613 16.5488 16.8717 16.1367 17.194 15.9506Z" fill="#274181"/>
<path fill-rule="evenodd" clip-rule="evenodd" d="M11.166 22.666C10.5458 22.666 10.043 23.1688 10.043 23.7891C10.043 24.4093 10.5458 24.9121 11.166 24.9121C11.7863 24.9121 12.2891 24.4093 12.2891 23.7891C12.2891 23.1688 11.7863 22.666 11.166 22.666ZM8.69531 23.7891C8.69531 22.4245 9.80148 21.3184 11.166 21.3184C12.5305 21.3184 13.6367 22.4245 13.6367 23.7891C13.6367 25.1536 12.5305 26.2598 11.166 26.2598C9.80148 26.2598 8.69531 25.1536 8.69531 23.7891Z" fill="#274181"/>
</svg>
