<svg width="35" height="35" viewBox="0 0 35 35" fill="none" xmlns="http://www.w3.org/2000/svg">
<rect x="0.5" y="0.5" width="34" height="34" rx="9.5" stroke="#274181" stroke-opacity="0.2"/>
<path d="M7.70374 16.2222H7.80374C7.80374 16.0228 7.88295 15.8316 8.02395 15.6906C8.16495 15.5496 8.35618 15.4704 8.55559 15.4704H20.4815H20.5815V15.3704V9.40751C20.5819 8.98228 20.751 8.5746 21.0517 8.27392C21.3524 7.97324 21.7601 7.80413 22.1853 7.8037L25.5926 7.8037C26.0178 7.80414 26.4255 7.97325 26.7261 8.27392C27.0268 8.5746 27.1959 8.98228 27.1963 9.40751V16.2221C27.1941 17.8571 26.5965 19.4353 25.5151 20.6616C24.4337 21.8879 22.9426 22.6783 21.3207 22.885L21.2334 22.8962V22.9842V26.4444C21.2334 26.6439 21.1542 26.8351 21.0132 26.9761C20.8722 27.1171 20.6809 27.1963 20.4815 27.1963H14.5186C14.3191 27.1963 14.1279 27.1171 13.9869 26.9761C13.8459 26.8351 13.7667 26.6439 13.7667 26.4444V22.9842V22.8962L13.6793 22.885C12.0575 22.6783 10.5664 21.8879 9.48499 20.6616C8.4036 19.4353 7.80592 17.8571 7.80374 16.2221L7.70374 16.2222ZM7.70374 16.2222C7.70595 17.8815 8.31252 19.4832 9.40999 20.7278C10.5075 21.9723 12.0207 22.7745 13.6667 22.9842M7.70374 16.2222C7.70374 15.9963 7.79348 15.7796 7.95324 15.6199C8.11299 15.4601 8.32966 15.3704 8.55559 15.3704H20.3815H20.4815V15.2704V9.40741C20.482 8.9557 20.6616 8.52262 20.981 8.20321C21.3004 7.8838 21.7335 7.70416 22.1852 7.7037L13.6667 22.9842M13.6667 22.9842V26.4444C13.6667 26.6704 13.7564 26.887 13.9162 27.0468C14.076 27.2066 14.2926 27.2963 14.5186 27.2963H20.4815C20.7074 27.2963 20.9241 27.2066 21.0839 27.0468C21.2436 26.887 21.3334 26.6704 21.3334 26.4444V22.9842H13.6667ZM25.6926 16.2223V16.2222V9.40741V9.30741H25.5926H22.1852H22.0852V9.40741V16.2222C22.0852 16.4216 22.006 16.6129 21.865 16.7539C21.724 16.8949 21.5328 16.9741 21.3334 16.9741L9.47815 16.9732L9.35967 16.9732L9.37956 17.09C9.58627 18.3038 10.2154 19.4054 11.1558 20.2002C12.0961 20.995 13.2872 21.4318 14.5184 21.4333H14.5186C14.718 21.4333 14.9092 21.5125 15.0502 21.6535C15.1912 21.7945 15.2704 21.9858 15.2704 22.1852V25.5926V25.6926H15.3704H19.6297H19.7297V25.5926V22.1852C19.7297 21.9858 19.8089 21.7945 19.9499 21.6535C20.0909 21.5125 20.2821 21.4333 20.4815 21.4333H20.4816C21.8632 21.4317 23.1877 20.8822 24.1646 19.9053C25.1415 18.9284 25.691 17.6039 25.6926 16.2223ZM7.80374 13.6667C7.80374 13.4673 7.88295 13.276 8.02395 13.135C8.16495 12.994 8.35618 12.9148 8.55559 12.9148H18.7778C18.9772 12.9148 19.1685 12.994 19.3094 13.135C19.4504 13.276 19.5297 13.4673 19.5297 13.6667C19.5297 13.8661 19.4504 14.0573 19.3095 14.1983C19.1685 14.3393 18.9772 14.4185 18.7778 14.4185H8.55559C8.35618 14.4185 8.16495 14.3393 8.02395 14.1983C7.88295 14.0573 7.80374 13.8661 7.80374 13.6667Z" fill="#274181" stroke="white" stroke-width="0.2"/>
</svg>
