<svg width="35" height="35" viewBox="0 0 35 35" fill="none" xmlns="http://www.w3.org/2000/svg">
<rect x="0.5" y="0.5" width="34" height="34" rx="9.5" stroke="#274181" stroke-opacity="0.2"/>
<path d="M27.9657 16.1861C27.8683 16.1202 27.7563 16.0792 27.6394 16.0667C27.5225 16.0541 27.4043 16.0705 27.2951 16.1143L24.6875 17.1572V16.0625C24.6875 15.4906 24.4603 14.9422 24.0559 14.5378C23.6516 14.1334 23.1031 13.9063 22.5312 13.9063H22.1316C22.3903 13.4712 22.5283 12.9749 22.5312 12.4688C22.5312 11.7063 22.2283 10.975 21.6892 10.4358C21.15 9.89667 20.4187 9.59377 19.6562 9.59377C19.0055 9.59668 18.3754 9.82244 17.8709 10.2335C17.6602 9.77574 17.3554 9.3676 16.9763 9.03568C16.5973 8.70376 16.1524 8.45552 15.6709 8.30718C15.1894 8.15884 14.682 8.11372 14.1818 8.17478C13.6817 8.23584 13.2001 8.4017 12.7684 8.66153C12.3367 8.92136 11.9646 9.26932 11.6765 9.68269C11.3884 10.0961 11.1908 10.5655 11.0964 11.0605C11.0021 11.5554 11.0132 12.0647 11.129 12.5551C11.2449 13.0454 11.4628 13.5059 11.7687 13.9063H11.0312C10.4594 13.9063 9.91093 14.1334 9.50655 14.5378C9.10218 14.9422 8.875 15.4906 8.875 16.0625V23.25C8.875 23.8219 9.10218 24.3703 9.50655 24.7747C9.91093 25.1791 10.4594 25.4063 11.0312 25.4063H22.5312C23.1031 25.4063 23.6516 25.1791 24.0559 24.7747C24.4603 24.3703 24.6875 23.8219 24.6875 23.25V22.1554L27.2951 23.199C27.4042 23.2427 27.5224 23.259 27.6393 23.2465C27.7561 23.2339 27.8682 23.1929 27.9655 23.127C28.0628 23.0611 28.1425 22.9723 28.1975 22.8684C28.2526 22.7646 28.2813 22.6488 28.2812 22.5313V16.7813C28.2813 16.6638 28.2525 16.5482 28.1975 16.4445C28.1425 16.3407 28.0629 16.252 27.9657 16.1861ZM19.6562 11.0313C19.9406 11.0313 20.2185 11.1156 20.4549 11.2735C20.6913 11.4315 20.8755 11.656 20.9843 11.9187C21.0931 12.1813 21.1216 12.4704 21.0661 12.7492C21.0107 13.0281 20.8738 13.2842 20.6727 13.4852C20.4717 13.6863 20.2155 13.8232 19.9367 13.8786C19.6578 13.9341 19.3688 13.9056 19.1061 13.7968C18.8435 13.688 18.619 13.5038 18.461 13.2674C18.3031 13.031 18.2188 12.7531 18.2188 12.4688C18.2188 12.0875 18.3702 11.7219 18.6398 11.4523C18.9094 11.1827 19.275 11.0313 19.6562 11.0313ZM12.4688 11.75C12.4688 11.3235 12.5952 10.9067 12.8321 10.5521C13.0691 10.1975 13.4058 9.9211 13.7998 9.7579C14.1938 9.5947 14.6274 9.552 15.0457 9.6352C15.4639 9.7184 15.8481 9.92376 16.1497 10.2253C16.4513 10.5269 16.6566 10.9111 16.7398 11.3294C16.823 11.7476 16.7803 12.1812 16.6171 12.5752C16.4539 12.9692 16.1775 13.3059 15.8229 13.5429C15.4684 13.7798 15.0515 13.9063 14.625 13.9063C14.0531 13.9063 13.5047 13.6791 13.1003 13.2747C12.6959 12.8703 12.4688 12.3219 12.4688 11.75ZM23.25 23.25C23.25 23.4406 23.1743 23.6235 23.0395 23.7582C22.9047 23.893 22.7219 23.9688 22.5312 23.9688H11.0312C10.8406 23.9688 10.6578 23.893 10.523 23.7582C10.3882 23.6235 10.3125 23.4406 10.3125 23.25V16.0625C10.3125 15.8719 10.3882 15.6891 10.523 15.5543C10.6578 15.4195 10.8406 15.3438 11.0312 15.3438H22.5312C22.7219 15.3438 22.9047 15.4195 23.0395 15.5543C23.1743 15.6891 23.25 15.8719 23.25 16.0625V23.25ZM26.8438 21.4697L24.6875 20.6072V18.7054L26.8438 17.8429V21.4697Z" fill="#274181"/>
</svg>
