<svg width="35" height="35" viewBox="0 0 35 35" fill="none" xmlns="http://www.w3.org/2000/svg">
<rect x="0.5" y="0.5" width="34" height="34" rx="9.5" stroke="#274181" stroke-opacity="0.2"/>
<path d="M25.1676 14.7649L22.0521 14.052V12.5245C22.0521 11.5144 21.3649 10.6508 20.3807 10.4237L10.7974 8.21197C10.1534 8.06342 9.48831 8.21377 8.97081 8.62586C8.45331 9.03794 8.15625 9.65222 8.15625 10.3135V24.2093C8.15625 25.8845 9.1165 26.8447 10.7917 26.8447H24.2083C25.8835 26.8447 26.8438 25.8845 26.8438 24.2093V16.8676C26.8438 15.8556 26.1547 14.9902 25.1676 14.7649ZM9.59375 24.2084V10.3125C9.59375 10.0921 9.69338 9.88711 9.86492 9.75007C9.99429 9.64753 10.1506 9.59378 10.3106 9.59378C10.3653 9.59378 10.4198 9.59955 10.4735 9.61297L20.0568 11.8247C20.3855 11.9004 20.6146 12.1881 20.6146 12.5245V14.625V25.4063H17.7396V22.2917C17.7396 20.8379 16.558 19.6563 15.1042 19.6563C13.6504 19.6563 12.4688 20.8379 12.4688 22.2917V25.4063H10.7917C9.90712 25.4063 9.59375 25.0929 9.59375 24.2084ZM16.3021 25.4063H13.9062V22.2917C13.9062 21.6314 14.4439 21.0938 15.1042 21.0938C15.7645 21.0938 16.3021 21.6314 16.3021 22.2917V25.4063ZM25.4062 24.2084C25.4062 25.0929 25.0929 25.4063 24.2083 25.4063H22.0521V15.5267L24.8475 16.1659C25.1762 16.2417 25.4062 16.5293 25.4062 16.8667V24.2084ZM15.8229 14.625C15.8229 14.2283 16.1449 13.9063 16.5417 13.9063H17.5C17.8967 13.9063 18.2188 14.2283 18.2188 14.625C18.2188 15.0218 17.8967 15.3438 17.5 15.3438H16.5417C16.1449 15.3438 15.8229 15.0218 15.8229 14.625ZM11.9896 14.625C11.9896 14.2283 12.3116 13.9063 12.7083 13.9063H13.6667C14.0634 13.9063 14.3854 14.2283 14.3854 14.625C14.3854 15.0218 14.0634 15.3438 13.6667 15.3438H12.7083C12.3116 15.3438 11.9896 15.0218 11.9896 14.625ZM15.8229 17.5C15.8229 17.1033 16.1449 16.7813 16.5417 16.7813H17.5C17.8967 16.7813 18.2188 17.1033 18.2188 17.5C18.2188 17.8968 17.8967 18.2188 17.5 18.2188H16.5417C16.1449 18.2188 15.8229 17.8968 15.8229 17.5ZM11.9896 17.5C11.9896 17.1033 12.3116 16.7813 12.7083 16.7813H13.6667C14.0634 16.7813 14.3854 17.1033 14.3854 17.5C14.3854 17.8968 14.0634 18.2188 13.6667 18.2188H12.7083C12.3116 18.2188 11.9896 17.8968 11.9896 17.5Z" fill="#274181"/>
</svg>
