<svg width="35" height="35" viewBox="0 0 35 35" fill="none" xmlns="http://www.w3.org/2000/svg">
<rect x="0.5" y="0.5" width="34" height="34" rx="9.5" stroke="#274181" stroke-opacity="0.2"/>
<path d="M22.8906 8.15625H12.1094C9.56021 8.15625 8.15625 9.56021 8.15625 12.1094V22.8906C8.15625 25.4398 9.56021 26.8438 12.1094 26.8438H22.8906C25.4398 26.8438 26.8438 25.4398 26.8438 22.8906V12.1094C26.8438 9.56021 25.4398 8.15625 22.8906 8.15625ZM22.5312 25.4062H12.4688V25.0421C12.4688 24.2438 12.7132 21.6399 15.8613 21.6399H19.1387C22.2868 21.6399 22.5312 24.2438 22.5312 25.0421V25.4062ZM25.4062 22.8906C25.4062 24.238 24.9625 24.9913 23.9688 25.273V25.0421C23.9688 22.8092 22.7037 20.2024 19.1387 20.2024H15.8613C12.2963 20.2024 11.0312 22.8101 11.0312 25.0421V25.273C10.0375 24.9913 9.59375 24.2371 9.59375 22.8906V12.1094C9.59375 10.346 10.346 9.59375 12.1094 9.59375H22.8906C24.654 9.59375 25.4062 10.346 25.4062 12.1094V22.8906ZM17.5077 11.9896C15.5268 11.9896 13.914 13.6015 13.914 15.5833C13.914 17.5652 15.5268 19.1771 17.5077 19.1771C19.4886 19.1771 21.1015 17.5652 21.1015 15.5833C21.1015 13.6015 19.4886 11.9896 17.5077 11.9896ZM17.5077 17.7396C16.3194 17.7396 15.3515 16.7726 15.3515 15.5833C15.3515 14.394 16.3194 13.4271 17.5077 13.4271C18.6961 13.4271 19.664 14.394 19.664 15.5833C19.664 16.7726 18.6961 17.7396 17.5077 17.7396Z" fill="#274181"/>
</svg>
