<svg width="35" height="35" viewBox="0 0 35 35" fill="none" xmlns="http://www.w3.org/2000/svg">
<rect x="0.5" y="0.5" width="34" height="34" rx="9.5" stroke="#274181" stroke-opacity="0.2"/>
<g clip-path="url(#clip0_9_304)">
<path d="M19.528 8.98038L19.5391 8.93327C19.5797 8.76054 19.6018 8.58088 19.6018 8.39609C19.6018 8.2113 19.5797 8.03163 19.5391 7.8589L19.528 7.81179L19.5747 7.79918L19.528 8.98038ZM19.528 8.98038L19.5747 8.99299M19.528 8.98038L19.5747 8.99299M19.5747 8.99299C19.6995 9.02667 19.8247 9.05881 19.9503 9.08938M19.5747 8.99299L22.4225 7.29766M22.4225 7.29766C23.0283 7.29766 23.521 7.79037 23.521 8.39609C23.521 9.0018 23.0283 9.49452 22.4225 9.49452C22.0787 9.49452 21.0312 9.35308 19.9503 9.08938M22.4225 7.29766C22.0787 7.29766 21.0312 7.43909 19.9504 7.70279L22.4225 7.29766ZM19.9503 9.08938L19.9622 9.04081L19.9504 9.08939C19.9504 9.08939 19.9504 9.08938 19.9503 9.08938ZM10.7342 23.6498L10.7342 23.6498C10.7504 23.6671 11.1501 24.0966 11.5522 24.6708L11.5924 24.6426L11.5522 24.6708C12.1453 25.518 12.4277 26.2137 12.4277 26.8006C12.4277 27.9858 11.4635 28.95 10.2783 28.95C9.0932 28.95 8.12892 27.9858 8.12892 26.8006C8.12892 26.2137 8.41132 25.518 9.00453 24.6708L8.96357 24.6421L9.00453 24.6708C9.40659 24.0965 9.80637 23.667 9.82252 23.6498L9.82254 23.6498L10.2783 23.1619L10.7342 23.6498ZM10.3176 25.0941L10.2778 25.0417L10.238 25.094C10.0173 25.3837 9.80291 25.7024 9.64338 26.0011C9.48496 26.2978 9.37658 26.5821 9.37658 26.8006C9.37658 27.2979 9.78108 27.7023 10.2783 27.7023C10.7756 27.7023 11.1801 27.2979 11.1801 26.8006C11.1801 26.5842 11.0704 26.2991 10.9114 26.0018C10.7512 25.7023 10.5365 25.3826 10.3176 25.0941ZM26.0705 11.8783H26.1205V11.8283V10.4633H27.3682V21.8633H26.1205V20.4983V20.4483H26.0705H24.8051C23.8677 20.4483 23.0979 19.7188 23.0324 18.7977L23.029 18.7513H22.9825H20.4466H20.4237L20.4088 18.7686C19.6211 19.6786 18.4666 20.2126 17.2557 20.2126C16.0449 20.2126 14.8903 19.6786 14.1027 18.7686L14.0877 18.7513H14.0649H13.0624H13.0124V18.8013V22.3158H7.63191V17.5142C7.63191 15.2295 9.49067 13.3708 11.7753 13.3708H14.0383H14.0614L14.0764 13.3532C14.719 12.5962 15.61 12.0926 16.59 11.9324L16.6319 11.9256V11.8831V10.6951V10.6577L16.596 10.6471C16.2452 10.5438 15.9234 10.36 15.6563 10.1102L15.6353 10.0906L15.6078 10.0988C15.4689 10.1402 15.3294 10.1796 15.1893 10.2168C13.9661 10.5418 12.6261 10.7422 12.0889 10.7422C10.7953 10.7422 9.74283 9.68967 9.74283 8.39609C9.74283 7.1025 10.7953 6.05 12.0889 6.05C12.6261 6.05 13.9661 6.25033 15.1893 6.57539L15.1893 6.5754C15.3295 6.61256 15.4691 6.65183 15.6081 6.69318L15.6356 6.70135L15.6565 6.68181C16.076 6.29021 16.6382 6.05 17.2557 6.05C17.8733 6.05 18.4355 6.29021 18.855 6.68176L18.8759 6.70131L18.9034 6.69313C19.0367 6.65339 19.1762 6.61413 19.3222 6.57535L19.3093 6.52702L19.3222 6.57535C20.5454 6.25033 21.8853 6.05 22.4225 6.05C23.7162 6.05 24.7687 7.10251 24.7687 8.39604C24.7687 9.68963 23.7162 10.7421 22.4225 10.7421C21.8853 10.7421 20.5454 10.5418 19.3222 10.2168C19.1821 10.1795 19.0426 10.1402 18.9037 10.0987L18.8762 10.0905L18.8552 10.1101C18.5881 10.36 18.2663 10.5438 17.9155 10.6471L17.8796 10.6576V10.6951V11.883V11.9255L17.9215 11.9324C18.9015 12.0925 19.7925 12.5961 20.4351 13.3531L20.45 13.3708H20.4732H23.0087H23.0502L23.0578 13.3299C23.2115 12.505 23.9364 11.8783 24.8051 11.8783H26.0705ZM14.9724 7.85899L14.9835 7.8119L14.9368 7.79928C14.8194 7.76755 14.6946 7.73537 14.5611 7.70279C13.4803 7.4391 12.4328 7.29766 12.0889 7.29766C11.4832 7.29766 10.9905 7.79037 10.9905 8.39609C10.9905 9.0018 11.4832 9.49452 12.0889 9.49452C12.4328 9.49452 13.4803 9.35312 14.5611 9.08938C14.6867 9.05874 14.8119 9.02657 14.9368 8.9929L14.9835 8.9803L14.9724 8.93318C14.9318 8.76045 14.9097 8.58083 14.9097 8.39609C14.9097 8.21134 14.9318 8.03172 14.9724 7.85899ZM11.7147 21.0681H11.7647V21.0181V17.5036H14.707L14.8938 17.7604L14.9342 17.731L14.8938 17.7604C15.4426 18.5146 16.3254 18.9649 17.2557 18.9649C18.186 18.9649 19.0689 18.5146 19.6176 17.7604L19.5772 17.731L19.6177 17.7604L19.8045 17.5036H22.9773H23.0273V17.4536V14.6684V14.6184H22.9773H19.8224L19.6359 14.3562C19.0881 13.5859 18.1983 13.126 17.2557 13.126C16.3131 13.126 15.4234 13.5859 14.8755 14.3562L14.689 14.6184H11.7752C10.1785 14.6184 8.87952 15.9174 8.87952 17.5142V21.0181V21.0681H8.92952H11.7147ZM26.1205 13.176V13.126H26.0705H24.8051C24.5128 13.126 24.275 13.3637 24.275 13.6561V18.6704C24.275 18.9628 24.5127 19.2006 24.8051 19.2006L26.0705 19.2006L26.1205 19.2006V19.1506V13.176ZM17.2557 7.29766C16.65 7.29766 16.1573 7.79037 16.1573 8.39609C16.1573 9.0018 16.65 9.49452 17.2557 9.49452C17.8615 9.49452 18.3542 9.0018 18.3542 8.39609C18.3542 7.79037 17.8615 7.29766 17.2557 7.29766Z" fill="#274181" stroke="#F6FAFE" stroke-width="0.1"/>
</g>
<defs>
<clipPath id="clip0_9_304">
<rect width="23" height="23" fill="white" transform="translate(6 6)"/>
</clipPath>
</defs>
</svg>
