<svg width="35" height="35" viewBox="0 0 35 35" fill="none" xmlns="http://www.w3.org/2000/svg">
<rect x="0.5" y="0.5" width="34" height="34" rx="9.5" fill="#F58220" fill-opacity="0.2"/>
<rect x="0.5" y="0.5" width="34" height="34" rx="9.5" stroke="#F58220"/>
<path d="M19.1771 17.5C19.1771 17.8967 18.8551 18.2188 18.4583 18.2188H12.7083C12.3116 18.2188 11.9896 17.8967 11.9896 17.5C11.9896 17.1032 12.3116 16.7812 12.7083 16.7812H18.4583C18.8551 16.7812 19.1771 17.1032 19.1771 17.5ZM12.7083 14.3854H15.5833C15.9801 14.3854 16.3021 14.0634 16.3021 13.6667C16.3021 13.2699 15.9801 12.9479 15.5833 12.9479H12.7083C12.3116 12.9479 11.9896 13.2699 11.9896 13.6667C11.9896 14.0634 12.3116 14.3854 12.7083 14.3854ZM18.4583 20.6146H12.7083C12.3116 20.6146 11.9896 20.9366 11.9896 21.3333C11.9896 21.7301 12.3116 22.0521 12.7083 22.0521H18.4583C18.8551 22.0521 19.1771 21.7301 19.1771 21.3333C19.1771 20.9366 18.8551 20.6146 18.4583 20.6146ZM26.8438 17.0208V24.2083C26.8438 25.6621 25.6621 26.8438 24.2083 26.8438H11.75C9.43275 26.8438 8.15625 25.5672 8.15625 23.25V11.75C8.15625 9.43275 9.43275 8.15625 11.75 8.15625H19.4167C21.7339 8.15625 23.0104 9.43275 23.0104 11.75V14.8646H24.6875C25.8758 14.8646 26.8438 15.8315 26.8438 17.0208ZM21.8614 25.4062C21.6774 25.0469 21.5729 24.6396 21.5729 24.2083V11.75C21.5729 10.2387 20.928 9.59375 19.4167 9.59375H11.75C10.2387 9.59375 9.59375 10.2387 9.59375 11.75V23.25C9.59375 24.7613 10.2387 25.4062 11.75 25.4062H21.8614ZM25.4062 17.0208C25.4062 16.6241 25.0833 16.3021 24.6875 16.3021H23.0104V24.2083C23.0104 24.8686 23.548 25.4062 24.2083 25.4062C24.8686 25.4062 25.4062 24.8686 25.4062 24.2083V17.0208Z" fill="#274181"/>
</svg>
