<svg width="35" height="35" viewBox="0 0 35 35" fill="none" xmlns="http://www.w3.org/2000/svg">
<rect x="0.5" y="0.5" width="34" height="34" rx="9.5" stroke="#274181" stroke-opacity="0.2"/>
<path d="M23.25 26.8438H11.75C9.43275 26.8438 8.15625 25.5673 8.15625 23.25V17.1646C8.15625 15.1301 8.71783 14.5618 9.63399 13.8018L15.499 8.88461C16.6576 7.9119 18.3424 7.9119 19.501 8.88461L25.366 13.8018C26.2822 14.5618 26.8438 15.131 26.8438 17.1646V23.25C26.8438 25.5673 25.5672 26.8438 23.25 26.8438ZM17.5 9.59377C17.1176 9.59377 16.7343 9.72509 16.4219 9.98672L10.5511 14.9087C9.83527 15.5029 9.59375 15.7031 9.59375 17.1656V23.251C9.59375 24.7622 10.2387 25.4072 11.75 25.4072H23.25C24.7613 25.4072 25.4062 24.7622 25.4062 23.251V17.1656C25.4062 15.7031 25.1647 15.5029 24.4489 14.9087L18.5781 9.98672C18.2657 9.72414 17.8824 9.59377 17.5 9.59377ZM17.5 18.5063C16.2321 18.5063 15.2 17.4742 15.2 16.2063C15.2 14.9384 16.2321 13.9063 17.5 13.9063C18.7679 13.9063 19.8 14.9384 19.8 16.2063C19.8 17.4742 18.7679 18.5063 17.5 18.5063ZM17.5 15.3438C17.0247 15.3438 16.6375 15.731 16.6375 16.2063C16.6375 16.6816 17.0247 17.0688 17.5 17.0688C17.9753 17.0688 18.3625 16.6816 18.3625 16.2063C18.3625 15.731 17.9753 15.3438 17.5 15.3438ZM20.375 23.0104C19.9782 23.0104 19.6562 22.6884 19.6562 22.2917V22.0013C19.6562 21.3113 19.1799 20.6146 18.1152 20.6146H16.8857C15.821 20.6146 15.3447 21.3113 15.3447 22.0013V22.2917C15.3447 22.6884 15.0227 23.0104 14.6259 23.0104C14.2292 23.0104 13.9072 22.6884 13.9072 22.2917V22.0013C13.9072 20.5983 14.9298 19.1771 16.8857 19.1771H18.1152C20.0712 19.1771 21.0938 20.5974 21.0938 22.0013V22.2917C21.0938 22.6884 20.7717 23.0104 20.375 23.0104Z" fill="#274181"/>
</svg>
