<svg width="35" height="35" viewBox="0 0 35 35" fill="none" xmlns="http://www.w3.org/2000/svg">
<rect x="0.5" y="0.5" width="34" height="34" rx="9.5" fill="#F58220" fill-opacity="0.2"/>
<rect x="0.5" y="0.5" width="34" height="34" rx="9.5" stroke="#F58220"/>
<path d="M23.25 26.8438H19.1771V21.8125C19.1771 20.8877 18.4248 20.1354 17.5 20.1354C16.5752 20.1354 15.8229 20.8877 15.8229 21.8125V26.8438H11.75C9.43275 26.8438 8.15625 25.5673 8.15625 23.25V17.1646C8.15625 15.1301 8.71783 14.5618 9.63399 13.8018L15.499 8.88462C16.6576 7.91191 18.3424 7.91191 19.501 8.88462L25.366 13.8018C26.2822 14.5618 26.8438 15.1311 26.8438 17.1646V23.25C26.8438 25.5673 25.5672 26.8438 23.25 26.8438ZM20.6146 25.4063H23.25C24.7613 25.4063 25.4062 24.7613 25.4062 23.25V17.1646C25.4062 15.7022 25.1647 15.5019 24.4489 14.9078L18.5781 9.98579C17.9533 9.46254 17.0467 9.46254 16.4219 9.98579L10.5511 14.9078C9.83527 15.5019 9.59375 15.7022 9.59375 17.1646V23.25C9.59375 24.7613 10.2387 25.4063 11.75 25.4063H14.3854V21.8125C14.3854 20.0952 15.7827 18.6979 17.5 18.6979C19.2173 18.6979 20.6146 20.0952 20.6146 21.8125V25.4063Z" fill="#274181"/>
</svg>
