<svg width="35" height="35" viewBox="0 0 35 35" fill="none" xmlns="http://www.w3.org/2000/svg">
<rect x="0.5" y="0.5" width="34" height="34" rx="9.5" stroke="#274181" stroke-opacity="0.2"/>
<path d="M16.5417 24.4479H11.75C10.2387 24.4479 9.59375 23.803 9.59375 22.2917V10.7917C9.59375 9.2804 10.2387 8.63544 11.75 8.63544H16.7812V10.7917C16.7812 13.1089 18.0578 14.3854 20.375 14.3854H22.5313V16.5417C22.5313 16.9384 22.8533 17.2604 23.25 17.2604C23.6468 17.2604 23.9688 16.9384 23.9688 16.5417V13.6667C23.9688 13.476 23.8931 13.2929 23.7579 13.1588L18.0079 7.40877C17.8728 7.27365 17.6907 7.19794 17.5 7.19794H11.75C9.43275 7.19794 8.15625 8.47444 8.15625 10.7917V22.2917C8.15625 24.6089 9.43275 25.8854 11.75 25.8854H16.5417C16.9384 25.8854 17.2604 25.5634 17.2604 25.1667C17.2604 24.7699 16.9384 24.4479 16.5417 24.4479ZM18.2188 10.7917V9.65223L21.5144 12.9479H20.375C18.8637 12.9479 18.2188 12.303 18.2188 10.7917ZM19.4167 15.8229C19.8134 15.8229 20.1354 16.1449 20.1354 16.5417C20.1354 16.9384 19.8134 17.2604 19.4167 17.2604H12.7083C12.3116 17.2604 11.9896 16.9384 11.9896 16.5417C11.9896 16.1449 12.3116 15.8229 12.7083 15.8229H19.4167ZM17.2604 20.375C17.2604 20.7718 16.9384 21.0938 16.5417 21.0938H12.7083C12.3116 21.0938 11.9896 20.7718 11.9896 20.375C11.9896 19.9783 12.3116 19.6563 12.7083 19.6563H16.5417C16.9384 19.6563 17.2604 19.9783 17.2604 20.375ZM23.25 18.6979C20.7401 18.6979 18.6979 20.7401 18.6979 23.25C18.6979 25.7599 20.7401 27.8021 23.25 27.8021C25.7599 27.8021 27.8021 25.7599 27.8021 23.25C27.8021 20.7401 25.7599 18.6979 23.25 18.6979ZM23.25 26.3646C21.5327 26.3646 20.1354 24.9674 20.1354 23.25C20.1354 21.5327 21.5327 20.1354 23.25 20.1354C24.9673 20.1354 26.3646 21.5327 26.3646 23.25C26.3646 24.9674 24.9673 26.3646 23.25 26.3646ZM25.1667 23.25C25.1667 23.6468 24.8447 23.9688 24.4479 23.9688H23.9688V24.4479C23.9688 24.8447 23.6468 25.1667 23.25 25.1667C22.8533 25.1667 22.5313 24.8447 22.5313 24.4479V23.9688H22.0521C21.6553 23.9688 21.3333 23.6468 21.3333 23.25C21.3333 22.8533 21.6553 22.5313 22.0521 22.5313H22.5313V22.0521C22.5313 21.6554 22.8533 21.3334 23.25 21.3334C23.6468 21.3334 23.9688 21.6554 23.9688 22.0521V22.5313H24.4479C24.8447 22.5313 25.1667 22.8533 25.1667 23.25Z" fill="#274181"/>
</svg>
