<svg width="35" height="35" viewBox="0 0 35 35" fill="none" xmlns="http://www.w3.org/2000/svg">
<rect x="0.5" y="0.5" width="34" height="34" rx="9.5" stroke="#274181" stroke-opacity="0.2"/>
<path d="M28.5328 25.2985L24.5437 9.19845C24.4359 8.69532 23.9687 8.37189 23.4656 8.37189H11.5343C11.0312 8.37189 10.6 8.73126 10.4562 9.19845L6.46714 25.2985C6.39526 25.6219 6.46714 25.9813 6.68276 26.2328C6.89839 26.4844 7.22183 26.6641 7.54526 26.6641H27.4546C27.7781 26.6641 28.1015 26.5203 28.3171 26.2328C28.5328 25.9813 28.6046 25.6219 28.5328 25.2985ZM17.5 22.9985C17.1406 22.9985 16.8531 23.2859 16.8531 23.6453V25.4063H10.6718L14.4093 9.59376H16.925C16.889 9.66564 16.889 9.73751 16.889 9.80939V11.5703C16.889 11.9297 17.1765 12.2172 17.5359 12.2172C17.8953 12.2172 18.1828 11.9297 18.1828 11.5703V9.80939C18.1828 9.73751 18.1828 9.66564 18.1468 9.59376H20.6625L24.3281 25.4063H18.1468V23.6453C18.1468 23.2859 17.8593 22.9985 17.5 22.9985ZM11.6421 9.59376H13.1156L9.37808 25.4063H7.76089L11.6421 9.59376ZM25.6218 25.4063L21.8843 9.59376H23.3218L27.239 25.4063H25.6218Z" fill="#274181"/>
<path d="M17.4999 16.8172C17.8593 16.8172 18.1468 16.5297 18.1468 16.1703V14.4094C18.1468 14.05 17.8593 13.7625 17.4999 13.7625C17.1405 13.7625 16.853 14.05 16.853 14.4094V16.1703C16.889 16.5297 17.1405 16.8172 17.4999 16.8172ZM18.1468 19.0453C18.1468 18.6859 17.8593 18.3984 17.4999 18.3984C17.1405 18.3984 16.853 18.6859 16.853 19.0453V20.8063C16.853 21.1656 17.1405 21.4531 17.4999 21.4531C17.8593 21.4531 18.1468 21.1656 18.1468 20.8063V19.0453Z" fill="#274181"/>
</svg>
