<svg width="35" height="35" viewBox="0 0 35 35" fill="none" xmlns="http://www.w3.org/2000/svg">
<rect x="0.5" y="0.5" width="34" height="34" rx="9.5" stroke="#274181" stroke-opacity="0.2"/>
<g clip-path="url(#clip0_16_1233)">
<path fill-rule="evenodd" clip-rule="evenodd" d="M9.70664 8.49334H8.60529C8.22074 8.49334 7.909 8.80508 7.909 9.18963C7.909 9.57418 8.22074 9.88592 8.60529 9.88592H9.70597V15.6888C8.19881 15.7997 7.01052 17.0576 7.01052 18.5931V27.6298H6C5.61545 27.6298 5.30371 27.9416 5.30371 28.3261C5.30371 28.7107 5.61545 29.0224 6 29.0224H7.69292C7.69754 29.0225 7.70217 29.0226 7.70681 29.0226C7.71145 29.0226 7.71608 29.0225 7.72069 29.0224H10.3884C10.393 29.0225 10.3976 29.0226 10.4023 29.0226C10.4069 29.0226 10.4115 29.0225 10.4161 29.0224H24.5839C24.5885 29.0225 24.5931 29.0226 24.5977 29.0226C24.6024 29.0226 24.607 29.0225 24.6116 29.0224H27.2793C27.2839 29.0225 27.2886 29.0226 27.2932 29.0226C27.2978 29.0226 27.3025 29.0225 27.3071 29.0224H29C29.3846 29.0224 29.6963 28.7107 29.6963 28.3261C29.6963 27.9416 29.3846 27.6298 29 27.6298H27.9895V18.5931C27.9895 17.0576 26.8012 15.7997 25.294 15.6888V9.88592H26.3947C26.7793 9.88592 27.091 9.57418 27.091 9.18963C27.091 8.80508 26.7793 8.49334 26.3947 8.49334H25.2933C25.2617 7.09855 24.1211 5.97758 22.7187 5.97758H12.2812C10.8788 5.97758 9.73827 7.09855 9.70664 8.49334ZM11.1 8.49334H23.8999C23.8689 7.86781 23.3519 7.37016 22.7187 7.37016H12.2812C11.648 7.37016 11.131 7.86781 11.1 8.49334ZM23.9015 9.88592H11.0985V16.3691C11.0986 16.3718 11.0986 16.3744 11.0986 16.3771C11.0986 16.3798 11.0986 16.3824 11.0985 16.3851V24.4853H23.9015V16.3851C23.9014 16.3824 23.9014 16.3798 23.9014 16.3771C23.9014 16.3744 23.9014 16.3717 23.9015 16.3691V9.88592ZM25.294 17.0887V27.6298H26.5969V18.5931C26.5969 17.8274 26.0306 17.194 25.294 17.0887ZM23.9015 27.6298V25.8778H11.0985V27.6298H23.9015ZM9.70597 27.6298V17.0887C8.96936 17.194 8.4031 17.8274 8.4031 18.5931V27.6298H9.70597ZM17.0076 12.4807C17.2796 12.2088 17.7204 12.2088 17.9924 12.4807L20.5191 15.0075C22.1864 16.6748 22.1864 19.3782 20.5191 21.0456C18.8517 22.713 16.1483 22.713 14.4809 21.0456C12.8136 19.3782 12.8136 16.6748 14.4809 15.0075L17.0076 12.4807ZM17.5 13.9578L15.4656 15.9922C14.3421 17.1157 14.3421 18.9374 15.4656 20.0609C16.5892 21.1844 18.4108 21.1844 19.5344 20.0609C20.6579 18.9374 20.6579 17.1157 19.5344 15.9922L17.5 13.9578ZM17.5 16.9684C17.8846 16.9684 18.1963 17.2802 18.1963 17.6647V19.1846C18.1963 19.5691 17.8846 19.8809 17.5 19.8809C17.1154 19.8809 16.8037 19.5691 16.8037 19.1846V17.6647C16.8037 17.2802 17.1154 16.9684 17.5 16.9684Z" fill="#274181"/>
</g>
<defs>
<clipPath id="clip0_16_1233">
<rect width="23" height="23" fill="white" transform="translate(6 6)"/>
</clipPath>
</defs>
</svg>
