<svg width="35" height="35" viewBox="0 0 35 35" fill="none" xmlns="http://www.w3.org/2000/svg">
<rect x="0.5" y="0.5" width="34" height="34" rx="9.5" stroke="#274181" stroke-opacity="0.2"/>
<path fill-rule="evenodd" clip-rule="evenodd" d="M15.2578 21.8477C14.5068 21.8477 13.8951 21.2389 13.8951 20.4942V10.1583C13.8951 9.81847 13.6196 9.54302 13.2798 9.54302C12.9401 9.54302 12.6646 9.81847 12.6646 10.1583V20.4942C12.6646 21.9268 13.8355 23.0781 15.2578 23.0781C16.679 23.0781 17.8418 21.9154 17.8418 20.4942V13.6036C17.8418 11.1393 19.8483 9.13286 22.3124 9.13286H24.5478C24.8876 9.13286 25.163 8.85742 25.163 8.51763C25.163 8.17785 24.8876 7.9024 24.5478 7.9024H22.3124C19.1687 7.9024 16.6113 10.4598 16.6113 13.6036V20.4942C16.6113 21.2358 15.9995 21.8477 15.2578 21.8477Z" fill="#274181"/>
<path fill-rule="evenodd" clip-rule="evenodd" d="M7.74274 20.4942C7.74274 24.6404 11.1155 28 15.2578 28C19.3957 28 22.7636 24.632 22.7636 20.4942V14.0547H24.5478C24.8876 14.0547 25.163 13.7793 25.163 13.4395C25.163 13.0997 24.8876 12.8243 24.5478 12.8243H22.3124C21.8854 12.8243 21.5331 13.1765 21.5331 13.6036V20.4942C21.5331 23.9525 18.7161 26.7695 15.2578 26.7695C11.7927 26.7695 8.97321 23.9585 8.97321 20.4942V10.3223C8.97321 9.98253 8.69776 9.70708 8.35797 9.70708C8.01819 9.70708 7.74274 9.98253 7.74274 10.3223V20.4942Z" fill="#274181"/>
<path fill-rule="evenodd" clip-rule="evenodd" d="M24.1582 13.4396C24.1582 14.1177 24.7104 14.67 25.3886 14.67H26.6191C27.2973 14.67 27.8496 14.1177 27.8496 13.4396V8.51763C27.8496 7.8395 27.2973 7.28717 26.6191 7.28717H25.3886C24.7104 7.28717 24.1582 7.83953 24.1582 8.51763V13.4396ZM25.3887 13.4385C25.3888 13.4387 25.389 13.4389 25.3892 13.4391C25.3894 13.4393 25.3896 13.4394 25.3898 13.4396H26.618C26.6182 13.4394 26.6184 13.4393 26.6186 13.4391C26.6188 13.4389 26.6189 13.4387 26.6191 13.4385V8.51874C26.6189 8.51856 26.6188 8.51836 26.6186 8.51815C26.6184 8.51795 26.6182 8.51778 26.618 8.51764H25.3898C25.3896 8.51778 25.3894 8.51795 25.3892 8.51814C25.389 8.51835 25.3888 8.51854 25.3887 8.51872V13.4385ZM25.3886 8.51763C25.3886 8.51763 25.3886 8.51763 25.3886 8.51763V8.51763ZM25.3887 8.51762C25.3887 8.51763 25.3887 8.51762 25.3887 8.51762C25.3887 8.51747 25.3887 8.51749 25.3887 8.51762ZM26.6191 13.4396C26.6191 13.4396 26.6191 13.4396 26.6191 13.4396C26.6192 13.4396 26.6192 13.4396 26.6192 13.4396C26.6193 13.4396 26.6193 13.4396 26.6191 13.4396Z" fill="#274181"/>
<path fill-rule="evenodd" clip-rule="evenodd" d="M13.1456 10.6914C13.8237 10.6914 14.376 10.1391 14.376 9.46093L14.376 8.23043C14.376 7.55228 13.8237 7 13.1456 7L8.22362 7C7.54549 7 6.99316 7.55228 6.99316 8.23043L6.99316 9.46093C6.99316 10.1391 7.54552 10.6914 8.22362 10.6914L13.1456 10.6914ZM13.1445 9.46089C13.1447 9.46074 13.1449 9.46057 13.1451 9.46036C13.1453 9.46017 13.1454 9.45998 13.1456 9.45981L13.1456 8.23157C13.1454 8.23139 13.1453 8.2312 13.1451 8.231C13.1448 8.23079 13.1446 8.23062 13.1445 8.23047L8.22473 8.23047C8.22455 8.23062 8.22435 8.23079 8.22414 8.231C8.22394 8.2312 8.22377 8.23139 8.22363 8.23157L8.22363 9.45981C8.22377 9.45998 8.22394 9.46017 8.22413 9.46036C8.22434 9.46057 8.22453 9.46074 8.22471 9.46089L13.1445 9.46089ZM8.22362 9.46095C8.22362 9.46096 8.22362 9.46094 8.22362 9.46095V9.46095ZM8.22361 9.4609C8.22362 9.4609 8.22361 9.4609 8.22361 9.4609C8.22346 9.4609 8.22348 9.46088 8.22361 9.4609ZM13.1456 8.23042C13.1456 8.23042 13.1456 8.23042 13.1456 8.23042C13.1456 8.2304 13.1456 8.23038 13.1456 8.23036C13.1456 8.23028 13.1456 8.23029 13.1456 8.23042Z" fill="#274181"/>
</svg>
