<svg width="35" height="35" viewBox="0 0 35 35" fill="none" xmlns="http://www.w3.org/2000/svg">
<rect x="0.5" y="0.5" width="34" height="34" rx="9.5" fill="#F58220" fill-opacity="0.2"/>
<rect x="0.5" y="0.5" width="34" height="34" rx="9.5" stroke="#F58220"/>
<path d="M26.6473 13.5431L25.6516 10.599C25.1829 9.21522 24.6032 8.15723 21.8125 8.15723H13.1875C10.3968 8.15723 9.81704 9.21522 9.34937 10.599L8.35173 13.544C7.90994 14.8512 8.23867 16.2427 9.11458 17.1588V23.25C9.11458 25.5673 10.3911 26.8438 12.7083 26.8438H22.2917C24.6089 26.8438 25.8854 25.5673 25.8854 23.25V17.1579C26.7613 16.2417 27.0891 14.8502 26.6473 13.5431ZM9.71354 14.004L10.7112 11.0591C11.0408 10.0835 11.2066 9.59376 13.1875 9.59376H21.8125C23.7934 9.59376 23.9591 10.0835 24.2898 11.0591L25.2855 14.0031C25.6152 14.9748 25.2663 16.0194 24.4584 16.4861C23.2826 17.1646 21.5029 16.488 21.0956 15.3428C20.994 15.0563 20.722 14.8646 20.4182 14.8646C20.4172 14.8646 20.4162 14.8646 20.4152 14.8646C20.1105 14.8656 19.8384 15.0591 19.7387 15.3476C19.4551 16.1651 18.4928 16.7813 17.5 16.7813C16.5072 16.7813 15.5449 16.1651 15.2613 15.3476C15.1616 15.0591 14.8895 14.8656 14.5848 14.8646C14.3116 14.8972 14.006 15.0553 13.9044 15.3428C13.613 16.1622 12.6461 16.7813 11.6533 16.7813C11.2594 16.7813 10.8751 16.6797 10.5416 16.4861C9.73368 16.0203 9.38483 14.9758 9.71354 14.004ZM18.7267 25.4063H16.3309V22.7708C16.3309 22.1106 16.8685 21.5729 17.5288 21.5729C18.1891 21.5729 18.7267 22.1106 18.7267 22.7708V25.4063ZM22.2917 25.4063H20.1642V22.7708C20.1642 21.3171 18.9826 20.1354 17.5288 20.1354C16.075 20.1354 14.8934 21.3171 14.8934 22.7708V25.4063H12.7083C11.197 25.4063 10.5521 24.7613 10.5521 23.25V18.0309C11.9608 18.4449 13.6245 17.9801 14.5781 16.9375C15.2892 17.7185 16.373 18.2178 17.5 18.2178C18.627 18.2178 19.7108 17.7185 20.4219 16.9375C21.1368 17.7185 22.2217 18.2178 23.3467 18.2178C23.7234 18.2178 24.0933 18.1536 24.4479 18.0424V23.25C24.4479 24.7613 23.803 25.4063 22.2917 25.4063Z" fill="#274181"/>
</svg>
