<svg width="35" height="35" viewBox="0 0 35 35" fill="none" xmlns="http://www.w3.org/2000/svg">
<rect x="0.5" y="0.5" width="34" height="34" rx="9.5" stroke="#274181" stroke-opacity="0.2"/>
<g clip-path="url(#clip0_16_1385)">
<path d="M28.7201 9.4372C28.633 9.37004 28.5316 9.32377 28.4238 9.30196C28.316 9.28014 28.2047 9.28336 28.0983 9.31137L23.4681 10.53C23.0929 10.6287 22.8638 11.0074 22.9504 11.3855L23.2316 12.6135L22.9082 12.7543C22.5636 12.9041 22.216 12.8836 21.8751 12.6932C21.4675 12.4654 21.1048 12.2526 20.7848 12.0649C19.2659 11.1738 18.3491 10.6358 16.9799 11.1479C16.6172 11.2835 16.2649 11.533 15.9087 11.8589H11.9412L12.0496 11.3856C12.1362 11.0074 11.9071 10.6288 11.5319 10.5301L6.90167 9.31133C6.79531 9.28334 6.68395 9.28013 6.57616 9.30195C6.46836 9.32376 6.36702 9.37003 6.27991 9.43718C6.19281 9.50433 6.12228 9.59057 6.07376 9.68926C6.02523 9.78795 5.99999 9.89647 6 10.0064V20.6157C6 21.0126 6.32182 21.3344 6.71875 21.3344H9.19826C9.53019 21.3344 9.81818 21.1071 9.89634 20.7853C11.6266 22.6342 13.3079 24.2671 14.4471 25.1966C14.7947 25.5296 15.2505 25.7123 15.7356 25.7123H15.7359C16.2346 25.7123 16.7027 25.5189 17.0537 25.1678C17.1553 25.0664 17.2448 24.9536 17.3205 24.8317L17.5577 25.0689C17.9087 25.4201 18.3767 25.6135 18.8756 25.6135H18.8759C19.3746 25.6134 19.8426 25.42 20.1937 25.0689C20.3123 24.9505 20.4144 24.8167 20.4972 24.6711C20.7718 24.8247 21.083 24.9064 21.4073 24.9064H21.4075C21.9063 24.9064 22.3743 24.713 22.7254 24.3619C23.0598 24.0274 23.2512 23.5869 23.2686 23.1148C23.6234 23.0427 23.9491 22.8689 24.2101 22.6078C24.5612 22.2568 24.7546 21.7887 24.7546 21.29C24.7546 21.2109 24.7492 21.1327 24.7397 21.0554L25.1343 20.8812C25.2416 21.1512 25.504 21.3344 25.8018 21.3344H28.2812C28.6782 21.3344 29 21.0126 29 20.6157V10.0064C29 9.89647 28.9748 9.78796 28.9262 9.68927C28.8777 9.59058 28.8072 9.50434 28.7201 9.4372ZM17.4833 12.4943C18.1829 12.2327 18.5944 12.4464 20.0574 13.3047C20.3835 13.4961 20.7532 13.7129 21.174 13.9481C21.9062 14.357 22.7257 14.4012 23.4817 14.0724L23.5582 14.0391L24.7992 19.4578L24.0338 19.7956L20.0041 15.766C19.1061 14.8679 17.6965 14.7409 16.6524 15.4639C15.2916 16.4063 14.5505 16.6421 13.9001 16.2177C14.4872 15.6423 15.0332 14.9957 15.5294 14.4081C16.2474 13.5579 16.9897 12.6788 17.4833 12.4943ZM7.4375 19.8969V10.9388L10.493 11.7429L8.6255 19.8969H7.4375ZM23.1937 21.5914C23.0303 21.7548 22.7537 21.7541 22.5906 21.5915L19.35 18.3506C19.0693 18.0699 18.6142 18.0698 18.3335 18.3506C18.0528 18.6313 18.0528 19.0864 18.3335 19.367L21.7091 22.7425C21.8704 22.9038 21.8727 23.1816 21.709 23.3454C21.5498 23.5047 21.2643 23.5039 21.106 23.3455L17.6199 19.8592C17.3392 19.5785 16.8841 19.5784 16.6034 19.8592C16.3227 20.1399 16.3227 20.595 16.6034 20.8757L19.1864 23.4588C19.3458 23.6182 19.3334 23.8962 19.1773 24.0523C19.0144 24.2153 18.7371 24.2154 18.5743 24.0525L15.3436 20.8217C15.0629 20.5409 14.6078 20.541 14.3271 20.8217C14.0464 21.1024 14.0464 21.5574 14.3271 21.8381L16.0441 23.5552C16.2044 23.7154 16.1952 23.9934 16.0374 24.1512C15.8744 24.3142 15.5972 24.3143 15.4344 24.1514C15.4169 24.1339 12.2119 21.1955 10.2854 19.0889L11.6121 13.2963H14.587C14.5351 13.3577 14.4832 13.4191 14.4313 13.4806C13.7786 14.2535 13.1037 15.0528 12.3831 15.657C12.0797 15.9115 12.0392 16.3633 12.2925 16.6676C13.0243 17.5465 13.8077 17.8507 14.5554 17.8506C15.7307 17.8505 16.8169 17.0985 17.4709 16.6456C17.9511 16.3132 18.5748 16.3695 18.9878 16.7824L23.1938 20.9884C23.3567 21.1515 23.3564 21.4286 23.1937 21.5914ZM27.5625 19.8969H26.3745L24.7689 12.8869L24.7687 12.8857L24.507 11.743L27.5625 10.9388V19.8969Z" fill="#274181"/>
</g>
<defs>
<clipPath id="clip0_16_1385">
<rect width="23" height="23" fill="white" transform="translate(6 6)"/>
</clipPath>
</defs>
</svg>
