<svg width="35" height="35" viewBox="0 0 35 35" fill="none" xmlns="http://www.w3.org/2000/svg">
<rect x="0.5" y="0.5" width="34" height="34" rx="9.5" stroke="#274181" stroke-opacity="0.2"/>
<g clip-path="url(#clip0_16_1381)">
<path d="M15.3901 23.7321H10.5932C8.47949 23.7321 6.76001 22.0126 6.76001 19.8989C6.76001 18.5443 7.46189 17.318 8.59067 16.6292C8.48374 16.2634 8.42857 15.8824 8.429 15.5026C8.429 14.1425 9.10754 12.9004 10.2266 12.1646C10.2215 12.0789 10.2185 11.9936 10.2185 11.9087C10.2185 9.54973 12.1379 7.63037 14.4968 7.63037C15.2093 7.63037 15.8841 7.79799 16.5032 8.12899L15.9027 9.25183C15.4703 9.02056 14.9976 8.90343 14.4968 8.90343C12.8397 8.90343 11.4916 10.2516 11.4916 11.9087C11.4916 12.0708 11.5056 12.2372 11.5327 12.4022L11.6087 12.8618L11.1937 13.0731C10.2737 13.5416 9.70206 14.4727 9.70206 15.5034C9.70163 15.9036 9.7916 16.3054 9.96219 16.6666L10.2495 17.2742L9.62737 17.528C8.659 17.9231 8.0335 18.8537 8.0335 19.8993C8.0335 21.3111 9.18222 22.4594 10.5936 22.4594H15.3905V23.7325L15.3901 23.7321Z" fill="#274181"/>
<path d="M24.0554 23.7321H15.3901C13.0824 23.7321 11.2051 21.8547 11.2051 19.5471C11.2051 18.0504 11.9901 16.6971 13.2488 15.9507C13.1215 15.5378 13.0574 15.1083 13.0574 14.6683C13.0574 13.1682 13.8127 11.7996 15.0552 10.9989C15.0476 10.8915 15.0442 10.7846 15.0442 10.6785C15.0442 8.09886 17.1431 6 19.7227 6C22.3024 6 24.4012 8.09886 24.4012 10.6785C24.4012 10.7854 24.3974 10.8924 24.3902 10.9989C25.6331 11.7996 26.388 13.1682 26.388 14.6683C26.388 15.1083 26.324 15.5378 26.1967 15.9507C27.4553 16.6971 28.2404 18.0504 28.2404 19.5471C28.2404 21.8547 26.363 23.7321 24.0554 23.7321ZM19.7227 7.27306C17.8449 7.27306 16.3173 8.80074 16.3173 10.6785C16.3173 10.8623 16.333 11.0507 16.364 11.2378L16.4395 11.6974L16.0245 11.9087C14.9797 12.4408 14.3304 13.4983 14.3304 14.6683C14.3304 15.13 14.4297 15.5743 14.6262 15.9889L14.9135 16.5965L14.2914 16.8503C13.1902 17.2997 12.4786 18.358 12.4786 19.5471C12.4786 21.1528 13.7847 22.459 15.3905 22.459H24.0558C25.6616 22.459 26.9677 21.1528 26.9677 19.5471C26.9677 18.3585 26.2561 17.2997 25.1549 16.8503L24.5328 16.5965L24.8201 15.9889C25.0161 15.5739 25.1154 15.1296 25.1154 14.6683C25.1154 13.4979 24.4661 12.4404 23.4214 11.9087L23.0059 11.697L23.0823 11.237C23.1129 11.0528 23.1286 10.8648 23.1286 10.6781C23.1286 8.80074 21.6009 7.27306 19.7231 7.27306H19.7227Z" fill="#274181"/>
<path d="M19.7227 27.7265C19.3713 27.7265 19.0862 27.4413 19.0862 27.09V12.5928C19.0862 12.2414 19.3713 11.9562 19.7227 11.9562C20.0741 11.9562 20.3592 12.2414 20.3592 12.5928V27.0896C20.3592 27.4409 20.0741 27.7261 19.7227 27.7261V27.7265Z" fill="#274181"/>
<path d="M14.4964 27.7265C14.145 27.7265 13.8599 27.4414 13.8599 27.09V23.0955C13.8599 22.7442 14.145 22.459 14.4964 22.459C14.8478 22.459 15.1329 22.7442 15.1329 23.0955V27.09C15.1329 27.4414 14.8478 27.7265 14.4964 27.7265Z" fill="#274181"/>
<path d="M19.7109 17.043C19.5479 17.043 19.385 16.981 19.2606 16.8567L16.7943 14.3903C16.5456 14.1417 16.5456 13.7389 16.7943 13.4903C17.043 13.2416 17.4461 13.2416 17.6943 13.4903L20.1607 15.9566C20.4094 16.2053 20.4094 16.608 20.1607 16.8567C20.0364 16.981 19.8734 17.043 19.7105 17.043H19.7109Z" fill="#274181"/>
<path d="M19.7108 17.043C19.5479 17.043 19.3849 16.981 19.2606 16.8567C19.0119 16.608 19.0119 16.2053 19.2606 15.9566L21.7269 13.4903C21.9756 13.2416 22.3788 13.2416 22.627 13.4903C22.8757 13.7389 22.8757 14.1417 22.627 14.3903L20.1607 16.8567C20.0363 16.981 19.8734 17.043 19.7104 17.043H19.7108Z" fill="#274181"/>
<path d="M19.7109 21.2623C19.5479 21.2623 19.3849 21.2004 19.2606 21.076L16.0915 17.9074C15.8429 17.6587 15.8429 17.2556 16.0915 17.0073C16.3402 16.7587 16.7433 16.7587 16.9916 17.0073L20.1607 20.176C20.4093 20.4247 20.4093 20.8278 20.1607 21.076C20.0363 21.2004 19.8734 21.2623 19.7104 21.2623H19.7109Z" fill="#274181"/>
<path d="M19.7105 21.2623C19.5475 21.2623 19.3846 21.2004 19.2602 21.076C19.0116 20.8274 19.0116 20.4242 19.2602 20.176L22.4289 17.0073C22.6776 16.7587 23.0807 16.7587 23.3289 17.0073C23.5776 17.256 23.5776 17.6591 23.3289 17.9074L20.1603 21.076C20.036 21.2004 19.873 21.2623 19.71 21.2623H19.7105Z" fill="#274181"/>
<path d="M28.3635 27.7265H6.63653C6.28517 27.7265 6 27.4414 6 27.09C6 26.7386 6.28517 26.4535 6.63653 26.4535H28.3635C28.7148 26.4535 29 26.7386 29 27.09C29 27.4414 28.7148 27.7265 28.3635 27.7265Z" fill="#274181"/>
</g>
<defs>
<clipPath id="clip0_16_1381">
<rect width="23" height="21.7265" fill="white" transform="translate(6 6)"/>
</clipPath>
</defs>
</svg>
