<svg width="35" height="35" viewBox="0 0 35 35" fill="none" xmlns="http://www.w3.org/2000/svg">
<rect x="0.5" y="0.5" width="34" height="34" rx="9.5" stroke="#274181" stroke-opacity="0.2"/>
<path d="M27.7107 20.9635H26.4484C27.9398 19.8314 28.9102 18.0391 28.9102 16.0266C28.9102 12.6035 26.125 9.81836 22.702 9.81836H12.298C8.875 9.81836 6.08984 12.6035 6.08984 16.0266C6.08984 18.0436 7.06016 19.8314 8.55156 20.9635H7.28926C6.93887 20.9635 6.65586 21.2465 6.65586 21.5969C6.65586 21.9473 6.93887 22.2303 7.28926 22.2303H8.875C8.7627 22.4863 8.6998 22.7738 8.6998 23.0703C8.6998 24.2338 9.64766 25.1771 10.8066 25.1771C11.9656 25.1771 12.9135 24.2293 12.9135 23.0703C12.9135 22.7693 12.8506 22.4863 12.7383 22.2303H22.2527C22.1404 22.4863 22.0775 22.7738 22.0775 23.0703C22.0775 24.2338 23.0254 25.1771 24.1844 25.1771C25.3434 25.1771 26.2912 24.2293 26.2912 23.0703C26.2912 22.7693 26.2283 22.4863 26.116 22.2303H27.7018C28.0521 22.2303 28.3352 21.9473 28.3352 21.5969C28.3352 21.2465 28.0611 20.9635 27.7107 20.9635ZM14.4004 14.1129H16.8666V16.2062H14.4004V14.1129ZM16.8666 12.8461H14.4004V11.0852H16.8666V12.8461ZM7.35664 16.0266C7.35664 13.3043 9.57129 11.0896 12.2936 11.0896H13.1291V18.8117C13.1291 19.1621 13.4121 19.4451 13.7625 19.4451C14.1129 19.4451 14.3959 19.1621 14.3959 18.8117V17.4775H16.8621V18.8117C16.8621 19.1621 17.1451 19.4451 17.4955 19.4451C17.8459 19.4451 18.1289 19.1621 18.1289 18.8117V11.0852H22.6975C25.4197 11.0852 27.6344 13.2998 27.6344 16.0221C27.6344 18.7443 25.4197 20.959 22.6975 20.959H12.298C9.57129 20.9635 7.35664 18.7488 7.35664 16.0266ZM10.8111 23.9148C10.3484 23.9148 9.97109 23.5375 9.97109 23.0748C9.97109 22.6121 10.3484 22.2348 10.8111 22.2348C11.2738 22.2348 11.6512 22.6121 11.6512 23.0748C11.6512 23.5375 11.2738 23.9148 10.8111 23.9148ZM25.0289 23.0748C25.0289 23.5375 24.6516 23.9148 24.1889 23.9148C23.7262 23.9148 23.3488 23.5375 23.3488 23.0748C23.3488 22.6121 23.7262 22.2348 24.1889 22.2348C24.6516 22.2348 25.0289 22.6076 25.0289 23.0748Z" fill="#274181"/>
</svg>
